<?xml version="1.0" encoding="UTF-8" standalone="no"?>
<!-- Created with Inkscape (http://www.inkscape.org/) -->

<svg
   width="47.734715mm"
   height="18.116318mm"
   viewBox="0 0 47.734715 18.116318"
   version="1.1"
   id="svg5"
   xmlns="http://www.w3.org/2000/svg"
   xmlns:svg="http://www.w3.org/2000/svg">
  <defs
     id="defs2" />
  <g
     id="layer5"
     transform="translate(-6.2887589,-110.73037)">
    <g
       id="g9290"
       transform="translate(-89.248396,109.18614)">
      <path
         id="rect9068"
         style="fill:#fcfcfc;stroke-width:0.1"
         d="M 95.537155,1.5442402 H 143.27187 V 19.660552 H 95.537155 Z" />
      <path
         id="path6024-6"
         style="color:#000000;fill:#171717;fill-opacity:1;stroke-width:0.638847;-inkscape-stroke:none"
         d="m 101.19944,3.7715261 v 2.2246828 l 2.26352,-0.00249 V 3.7715248 h -0.47905 z m 0.95834,0.958095 h 0.34684 v 0.3069991 h -0.34684 z m 1.27147,12.4775469 -10e-4,-0.95827 -3.27035,0.0075 v -0.995703 l 1.8292,-0.0262 -0.0149,-0.95827 -2.77249,0.03993 v 2.901012 z m -0.15597,-2.103702 -2.81242,-2.373216 1.53847,-0.0063 -0.004,-0.95827 -4.145019,0.01622 4.805079,4.053931 z m 0.15472,-1.05809 -0.025,-3.693333 h -5.554967 v 6.865107 h 0.95827 v -5.906837 h 3.644667 l 0.0125,1.760572 -1.79177,-0.02994 -0.0149,0.95827 z m -3.33647,-3.216694 -0.0174,-3.7657013 h -2.260918 v 2.7612654 h 0.95827 V 8.0212508 h 0.348121 l 0.01373,2.8124232 z m 3.29031,-0.8921388 -2.49799,-4.2910037 h -2.117429 l -0.0075,-1.8766122 -0.95827,0.00377 0.01124,2.8311386 h 2.520449 l 1.3825,2.3744636 h -1.783026 v 0.9582701 z" />
      <path
         id="path6261-5"
         d="m 140.0955,16.868127 c 0.51969,0 0.91285,-0.325373 0.91285,-0.759205 0,-0.352488 -0.15817,-0.605557 -0.84055,-0.781801 -0.28018,-0.07231 -0.31634,-0.14461 -0.31634,-0.225954 0,-0.14461 0.12654,-0.207878 0.29375,-0.207878 0.15816,0 0.30277,0.07231 0.41575,0.253069 l 0.44287,-0.338931 c -0.23951,-0.311817 -0.49258,-0.406717 -0.87218,-0.406717 -0.55133,0 -0.8767,0.307297 -0.8767,0.718533 0,0.29826 0.0949,0.582962 0.72305,0.732091 0.37056,0.08586 0.42931,0.153649 0.42931,0.275664 0,0.140092 -0.11749,0.244031 -0.32537,0.244031 -0.19884,0 -0.3796,-0.0949 -0.55133,-0.289221 l -0.41124,0.375083 c 0.25759,0.275664 0.57845,0.411236 0.97613,0.411236 z m -2.34992,-0.05875 h 0.61459 l 0.97612,-2.349921 h -0.70949 l -0.46999,1.342167 c -0.0407,0.112977 -0.0768,0.253068 -0.0994,0.375083 -0.0226,-0.122015 -0.0587,-0.262106 -0.0994,-0.375083 l -0.46998,-1.342167 h -0.72306 z m -2.05618,0.05875 c 0.46546,0 0.85862,-0.207877 1.04842,-0.501617 l -0.4745,-0.357008 c -0.10846,0.180763 -0.31182,0.316336 -0.57392,0.316336 -0.3073,0 -0.51518,-0.194321 -0.58296,-0.469984 h 1.75792 c 0.0136,-0.07682 0.0181,-0.14913 0.0181,-0.216916 0,-0.677862 -0.48806,-1.238228 -1.19303,-1.238228 -0.70498,0 -1.21564,0.560366 -1.21564,1.238228 0,0.677862 0.48806,1.229189 1.21564,1.229189 z m -0.58296,-1.468701 c 0.0678,-0.280183 0.2847,-0.474503 0.57392,-0.474503 0.29826,0 0.51969,0.212397 0.58748,0.474503 z m -2.25502,1.468701 c 0.42027,0 0.63267,-0.176244 0.7592,-0.442869 v 0.384121 h 0.592 v -3.298928 h -0.61007 v 1.310533 c -0.12654,-0.248549 -0.33893,-0.411236 -0.74113,-0.411236 -0.64623,0 -1.16141,0.555847 -1.16141,1.233709 0,0.677862 0.51518,1.22467 1.16141,1.22467 z m -0.55133,-1.229189 c 0,-0.366046 0.26211,-0.677862 0.65075,-0.677862 0.40219,0 0.65978,0.316335 0.65978,0.682381 0,0.366045 -0.25759,0.673343 -0.65978,0.673343 -0.38864,0 -0.65075,-0.320855 -0.65075,-0.677862 z m -2.7024,1.229189 c 0.72757,0 1.25178,-0.551327 1.25178,-1.229189 0,-0.677862 -0.52421,-1.233709 -1.25178,-1.233709 -0.72757,0 -1.25179,0.555847 -1.25179,1.233709 0,0.677862 0.52422,1.229189 1.25179,1.229189 z m -0.64171,-1.229189 c 0,-0.366046 0.25307,-0.677862 0.64171,-0.677862 0.38864,0 0.64171,0.311816 0.64171,0.677862 0,0.366045 -0.25307,0.673343 -0.64171,0.673343 -0.38864,0 -0.64171,-0.307298 -0.64171,-0.673343 z m -1.04842,1.170441 h 0.33441 V 16.26709 h -0.25307 c -0.1175,0 -0.1898,-0.06779 -0.1898,-0.216916 v -1.071022 h 0.4971 v -0.519694 h -0.4971 v -0.537771 l -0.61008,0.06327 v 0.474504 h -0.32989 v 0.519694 h 0.32989 v 1.102656 c 0,0.510656 0.25307,0.727571 0.71854,0.727571 z m -2.58944,0.628153 0.12654,-0.04519 c 0.33441,-0.117496 0.56036,-0.384122 0.56036,-0.732091 0,-0.325374 -0.18076,-0.524213 -0.4519,-0.524213 -0.19884,0 -0.37057,0.162686 -0.37057,0.357007 0,0.198839 0.17173,0.361526 0.35249,0.361526 0.0362,0 0.0678,-0.0045 0.10394,-0.01356 -0.0407,0.122015 -0.13105,0.185282 -0.31634,0.248549 l -0.12653,0.04519 z m -1.18852,-0.569405 c 0.51969,0 0.91285,-0.325373 0.91285,-0.759205 0,-0.352488 -0.15816,-0.605557 -0.84054,-0.781801 -0.28019,-0.07231 -0.31634,-0.14461 -0.31634,-0.225954 0,-0.14461 0.12653,-0.207878 0.29374,-0.207878 0.15817,0 0.30278,0.07231 0.41576,0.253069 l 0.44287,-0.338931 c -0.23952,-0.311817 -0.49258,-0.406717 -0.87219,-0.406717 -0.55132,0 -0.8767,0.307297 -0.8767,0.718533 0,0.29826 0.0949,0.582962 0.72305,0.732091 0.37057,0.08586 0.42932,0.153649 0.42932,0.275664 0,0.140092 -0.1175,0.244031 -0.32538,0.244031 -0.19884,0 -0.3796,-0.0949 -0.55132,-0.289221 l -0.41124,0.375083 c 0.25759,0.275664 0.57844,0.411236 0.97612,0.411236 z m -2.34992,-0.05875 h 0.61459 l 0.97612,-2.349921 h -0.70949 l -0.46998,1.342167 c -0.0407,0.112977 -0.0768,0.253068 -0.0994,0.375083 -0.0226,-0.122015 -0.0588,-0.262106 -0.0994,-0.375083 l -0.46999,-1.342167 h -0.72305 z m -2.05618,0.05875 c 0.46546,0 0.85862,-0.207877 1.04843,-0.501617 l -0.47451,-0.357008 c -0.10846,0.180763 -0.31181,0.316336 -0.57392,0.316336 -0.3073,0 -0.51518,-0.194321 -0.58296,-0.469984 h 1.75792 c 0.0136,-0.07682 0.0181,-0.14913 0.0181,-0.216916 0,-0.677862 -0.48806,-1.238228 -1.19304,-1.238228 -0.70498,0 -1.21563,0.560366 -1.21563,1.238228 0,0.677862 0.48806,1.229189 1.21563,1.229189 z m -0.58296,-1.468701 c 0.0678,-0.280183 0.2847,-0.474503 0.57392,-0.474503 0.29826,0 0.51969,0.212397 0.58748,0.474503 z m -2.25502,1.468701 c 0.42027,0 0.63267,-0.176244 0.75921,-0.442869 v 0.384121 h 0.592 v -3.298928 h -0.61008 v 1.310533 c -0.12653,-0.248549 -0.33893,-0.411236 -0.74113,-0.411236 -0.64623,0 -1.1614,0.555847 -1.1614,1.233709 0,0.677862 0.51517,1.22467 1.1614,1.22467 z m -0.55133,-1.229189 c 0,-0.366046 0.26211,-0.677862 0.65075,-0.677862 0.4022,0 0.65979,0.316335 0.65979,0.682381 0,0.366045 -0.25759,0.673343 -0.65979,0.673343 -0.38864,0 -0.65075,-0.320855 -0.65075,-0.677862 z m -5.33251,1.170441 h 0.61008 v -1.287937 c 0,-0.406718 0.23047,-0.582962 0.48806,-0.582962 0.30278,0 0.50614,0.176244 0.50614,0.582962 v 1.287937 h 0.61007 v -1.287937 c 0,-0.451908 0.19432,-0.582962 0.47903,-0.582962 0.27566,0 0.46998,0.176244 0.46998,0.582962 v 1.287937 h 0.61008 v -1.437067 c 0,-0.592 -0.38865,-0.967083 -0.89478,-0.967083 -0.41124,0 -0.63719,0.158168 -0.79536,0.44287 -0.15365,-0.284702 -0.43383,-0.44287 -0.76372,-0.44287 -0.36153,0 -0.59652,0.135572 -0.71854,0.397679 v -0.34345 h -0.60104 z m -1.52293,0.05875 c 0.72758,0 1.25179,-0.551327 1.25179,-1.229189 0,-0.677862 -0.52421,-1.233709 -1.25179,-1.233709 -0.72757,0 -1.25178,0.555847 -1.25178,1.233709 0,0.677862 0.52421,1.229189 1.25178,1.229189 z m -0.64171,-1.229189 c 0,-0.366046 0.25307,-0.677862 0.64171,-0.677862 0.38865,0 0.64171,0.311816 0.64171,0.677862 0,0.366045 -0.25306,0.673343 -0.64171,0.673343 -0.38864,0 -0.64171,-0.307298 -0.64171,-0.673343 z m -1.92964,1.170441 h 0.61007 v -1.202075 c 0,-0.39316 0.27115,-0.628152 0.62364,-0.628152 h 0.0859 v -0.573923 c -0.40672,-0.0226 -0.64623,0.162687 -0.72757,0.501618 V 14.45946 h -0.592 z m -2.19628,0 h 0.63267 v -1.292456 h 1.20208 v -0.560368 h -1.20208 v -0.74113 h 1.22467 v -0.569404 h -1.85734 z m 24.4952,-4.550199 c 1.06252,0 1.5995,-0.445575 1.9194,-1.11965 v 0.971125 h 1.49667 V 3.7704045 h -1.54237 v 3.31325 c -0.3199,-0.628375 -0.85688,-1.039675 -1.8737,-1.039675 -1.63378,0 -2.93623,1.405275 -2.93623,3.1190253 0,1.7137502 1.30245,3.0961752 2.93623,3.0961752 z m -1.39386,-3.1076005 c 0,-0.925425 0.66266,-1.71375 1.64521,-1.71375 1.01682,0 1.66805,0.79975 1.66805,1.7251753 0,0.9254252 -0.65123,1.7023252 -1.66805,1.7023252 -0.98255,0 -1.64521,-0.811175 -1.64521,-1.7137505 z m -4.92418,3.1076005 c 1.17678,0 2.17075,-0.52555 2.6506,-1.268175 l -1.19962,-0.902575 c -0.2742,0.457 -0.78833,0.79975 -1.45098,0.79975 -0.7769,0 -1.30245,-0.491275 -1.47382,-1.1882001 h 4.44432 c 0.0343,-0.194225 0.0457,-0.3770251 0.0457,-0.5484004 0,-1.71375 -1.2339,-3.13045 -3.0162,-3.13045 -1.7823,0 -3.07332,1.4167 -3.07332,3.13045 0,1.7137505 1.2339,3.1076005 3.07332,3.1076005 z m -1.47382,-3.7131255 c 0.17137,-0.70835 0.71977,-1.199625 1.45097,-1.199625 0.75405,0 1.31388,0.536975 1.48525,1.199625 z m -4.93561,3.5646005 h 1.54238 V 9.0716045 c 0,-0.993975 0.6855,-1.588075 1.57665,-1.588075 h 0.21708 v -1.450975 c -1.02825,-0.057125 -1.63378,0.4113 -1.83943,1.268175 v -1.131075 h -1.49668 z m -3.85022,0.148525 c 1.83943,0 3.16473,-1.39385 3.16473,-3.1076005 0,-1.71375 -1.3253,-3.119025 -3.16473,-3.119025 -1.83942,0 -3.16472,1.405275 -3.16472,3.119025 0,1.7137505 1.3253,3.1076005 3.16472,3.1076005 z m -1.62235,-3.1076005 c 0,-0.925425 0.6398,-1.71375 1.62235,-1.71375 0.98255,0 1.62235,0.788325 1.62235,1.71375 0,0.9254255 -0.6398,1.7023255 -1.62235,1.7023255 -0.98255,0 -1.62235,-0.7769 -1.62235,-1.7023255 z m -6.29516,2.9590755 h 4.58142 v -1.43955 h -2.98192 V 4.1131545 h -1.5995 z"
         style="font-weight:600;font-size:4.51908px;font-family:'Cal Sans';-inkscape-font-specification:'Cal Sans, Semi-Bold';fill:#171717;fill-opacity:1;stroke-width:0.90377" />
    </g>
  </g>
</svg>
