<?xml version="1.0" encoding="UTF-8" standalone="no"?>
<!-- Created with Inkscape (http://www.inkscape.org/) -->

<svg
   width="54.096081mm"
   height="14.636162mm"
   viewBox="0 0 54.096081 14.636162"
   version="1.1"
   id="svg5"
   xmlns="http://www.w3.org/2000/svg"
   xmlns:svg="http://www.w3.org/2000/svg">
  <defs
     id="defs2" />
  <g
     id="layer5"
     transform="translate(-6.2887584,-90.201398)">
    <g
       id="g8166"
       transform="translate(2.897901,-4.2802458)">
      <path
         id="rect7323"
         style="fill:#fcfcfc;stroke-width:0"
         d="M 3.3908575,94.481644 H 57.486938 V 109.11781 H 3.3908575 Z" />
      <path
         id="path5995-9"
         style="font-size:11.425px;font-family:'Cal Sans';-inkscape-font-specification:'Cal Sans, Normal';fill:#171717;fill-opacity:1;stroke-width:1.491;stroke-dasharray:none"
         d="m 143.17108,12.175706 c 1.01602,0 1.5295,-0.426074 1.8354,-1.070646 v 0.928621 h 1.43117 V 4.0584619 h -1.47487 v 3.1682377 c -0.3059,-0.6008727 -0.81938,-0.9941712 -1.7917,-0.9941712 -1.56227,0 -2.80771,1.3437698 -2.80771,2.9825137 0,1.6387439 1.24544,2.9606639 2.80771,2.9606639 z m -1.33284,-2.9715891 c 0,-0.8849216 0.63365,-1.6387437 1.57319,-1.6387437 0.97232,0 1.59505,0.7647471 1.59505,1.6496689 0,0.8849219 -0.62273,1.6278189 -1.59505,1.6278189 -0.93954,0 -1.57319,-0.775672 -1.57319,-1.6387441 z m -4.70867,2.9715891 c 1.12528,0 2.07575,-0.502548 2.53459,-1.212671 l -1.14712,-0.863071 c -0.26219,0.436998 -0.75382,0.764747 -1.38747,0.764747 -0.74289,0 -1.24544,-0.469773 -1.40931,-1.1361959 h 4.2498 c 0.0328,-0.1857243 0.0437,-0.3605236 0.0437,-0.5243982 0,-1.6387437 -1.17989,-2.9934384 -2.88419,-2.9934384 -1.70429,0 -2.93881,1.3546947 -2.93881,2.9934384 0,1.6387441 1.1799,2.9715891 2.93881,2.9715891 z m -1.40931,-3.5506119 c 0.16387,-0.6773473 0.68827,-1.1471205 1.38746,-1.1471205 0.72105,0 1.25637,0.513473 1.42025,1.1471205 z m -4.71959,3.4085869 h 1.47487 V 9.1276422 c 0,-0.9504713 0.6555,-1.5185691 1.50764,-1.5185691 h 0.20758 V 6.2216035 c -0.98325,-0.054625 -1.56227,0.3932984 -1.75892,1.2126702 V 6.3527029 h -1.43117 z m -3.68171,0.142025 c 1.75892,0 3.02621,-1.332845 3.02621,-2.9715891 0,-1.6387437 -1.26729,-2.9825134 -3.02621,-2.9825134 -1.75892,0 -3.02621,1.3437697 -3.02621,2.9825134 0,1.6387441 1.26729,2.9715891 3.02621,2.9715891 z m -1.55134,-2.9715891 c 0,-0.8849216 0.61179,-1.6387437 1.55134,-1.6387437 0.93955,0 1.55134,0.7538221 1.55134,1.6387437 0,0.8849221 -0.61179,1.6278191 -1.55134,1.6278191 -0.93955,0 -1.55134,-0.742897 -1.55134,-1.6278191 z m -6.01965,2.8295641 h 4.38091 v -1.376544 h -2.85141 V 4.3862106 h -1.5295 z M 98.73274,7.3617117 h 3.19558 l -0.004,-3.2513714 h -3.192002 v 0.6881109 z m 1.37623,-1.3765889 V 5.48692 h 0.44098 v 0.4982028 z m 17.923,-1.826358 -1.37648,0.00184 0.0108,4.6975917 H 115.236 l -0.0376,-2.6274961 -1.37648,0.021473 0.0574,3.9824656 h 4.16708 z m -3.0218,0.2240357 -3.40894,4.0398184 -0.009,-2.2098908 -1.37648,0.00551 0.0233,5.9539869 5.82315,-6.9021146 z m -1.51986,-0.2222462 -5.30518,0.03588 v 7.9792737 h 9.86118 v -1.376479 h -8.4847 V 5.563957 l 2.52892,-0.017894 -0.043,2.5737308 1.37648,0.021473 z m -4.62053,4.7925779 -5.40913,0.025052 v 3.2476268 h 3.96634 v -1.376478 h -2.58986 v -0.500048 l 4.03982,-0.01973 z M 107.5883,4.2268638 101.42461,7.815032 v 3.041513 l -2.695603,0.01074 0.0054,1.376479 4.066713,-0.01615 V 8.6071864 l 3.41072,-1.9858551 v 2.5611773 h 1.37648 z"
         transform="translate(-92.146297,93.62268)" />
    </g>
  </g>
</svg>
