<?xml version="1.0" encoding="UTF-8" standalone="no"?>
<!-- Created with Inkscape (http://www.inkscape.org/) -->

<svg
   width="54.096085mm"
   height="14.636162mm"
   viewBox="0 0 54.096085 14.636162"
   version="1.1"
   id="svg5"
   xmlns="http://www.w3.org/2000/svg"
   xmlns:svg="http://www.w3.org/2000/svg">
  <defs
     id="defs2" />
  <g
     id="layer5"
     transform="translate(-65.270708,-90.201398)">
    <g
       id="g8172"
       transform="translate(61.879853,-4.2802458)">
      <path
         id="rect8835"
         style="fill:#171717;stroke-width:0"
         d="M 3.3908575,94.481644 H 57.486938 V 109.11781 H 3.3908575 Z" />
      <path
         id="path8744"
         style="font-size:11.425px;font-family:'Cal Sans';-inkscape-font-specification:'Cal Sans, Normal';fill:#fcfcfc;fill-opacity:1;stroke:#171717;stroke-width:0.2;stroke-dasharray:none;stroke-opacity:1"
         d="m 98.732436,4.1103726 v 0.68833 l 5.17e-4,2.5631511 h 3.195157 l -0.004,-3.2514811 z m 19.299594,0.048576 -1.37666,0.00155 0.0108,4.6979045 h -1.4304 l -0.0362,-2.5657349 0.86248,-1.0226766 -1.05213,-0.8872843 -1.55392,1.8422648 0.0341,-2.0644735 -5.3051,0.036174 V 8.956072 l -0.59686,0.0031 V 4.2266445 l -6.16345,3.5884115 v 3.041675 l -2.695962,0.01033 0.0057,1.37666 4.066422,-0.01602 V 8.6072557 l 3.41116,-1.9859253 v 2.344043 l -2.75125,0.012919 v 3.2473466 h 3.96617 v -1.376143 h -2.59003 v -0.500228 l 3.34812,-0.01602 v 1.842264 h 9.86141 V 10.79937 h -6.64921 l 2.44843,-2.9021485 0.0336,2.3373255 h 4.16719 z M 100.1091,5.4870327 h 0.4408 v 0.4981608 h -0.4408 z m 11.98118,0.058911 -0.0393,2.3435262 -0.44958,0.5333007 -0.009,-2.210201 -1.37615,0.00568 0.0181,4.5811154 h -0.67231 V 5.5640306 Z"
         transform="translate(-92.146297,93.62268)" />
      <path
         id="path8728"
         style="font-size:11.425px;font-family:'Cal Sans';-inkscape-font-specification:'Cal Sans, Normal';fill:#fcfcfc;fill-opacity:1;stroke:#171717;stroke-width:0.1;stroke-dasharray:none;stroke-opacity:1"
         transform="translate(-92.146297,93.62268)"
         d="m 144.96269,4.0586961 v 3.1677653 c -0.3059,-0.6008721 -0.8193,-0.9937378 -1.79162,-0.9937378 -1.56227,0 -2.80758,1.3435047 -2.80758,2.982247 0,1.6387424 1.24531,2.9605424 2.80758,2.9605424 1.01602,0 1.52964,-0.425647 1.83554,-1.070219 v 0.928626 h 1.43092 V 4.0586961 Z m -1.55133,3.5067627 c 0.97232,0 1.59525,0.7645908 1.59525,1.6495118 0,0.8849214 -0.62293,1.6278074 -1.59525,1.6278074 -0.93954,0 -1.57303,-0.775588 -1.57303,-1.6386595 0,-0.8849207 0.63349,-1.6386597 1.57303,-1.6386597 z m -6.28178,-1.354956 c -1.70429,0 -2.93884,1.3548736 -2.93884,2.9936157 0,1.6387425 1.17993,2.9713945 2.93884,2.9713945 1.12527,0 2.07588,-0.502206 2.53472,-1.212329 l -1.14721,-0.862996 c -0.26219,0.436997 -0.75387,0.764294 -1.38751,0.764294 -0.74289,0 -1.24535,-0.469425 -1.40922,-1.1358477 h 4.24987 c 0.0328,-0.1857241 0.0434,-0.3606414 0.0434,-0.5245158 0,-1.6387421 -1.17977,-2.9936157 -2.88406,-2.9936157 z m -0.0543,1.2676229 c 0.0108,-2.284e-4 0.0216,0 0.0325,0 0.72105,0 1.25619,0.5135699 1.42007,1.1472168 h -2.80758 c 0.16131,-0.6667631 0.67211,-1.1328288 1.35496,-1.1472168 z m -6.07465,4.5555553 h 1.47487 V 9.1276422 c 0,-0.9504713 0.6555,-1.5185691 1.50764,-1.5185691 h 0.20758 V 6.2216035 c -0.98325,-0.054625 -1.56227,0.3932984 -1.75892,1.2126702 V 6.3527029 h -1.43117 z M 127.3188,6.2213548 c -1.75891,0 -3.02617,1.3440216 -3.02617,2.9827637 0,1.6387425 1.26726,2.9713945 3.02617,2.9713945 1.75892,0 3.02618,-1.332652 3.02618,-2.9713945 0,-1.6387421 -1.26726,-2.9827637 -3.02618,-2.9827637 z m 0,1.344104 c 0.93955,0 1.55133,0.753739 1.55133,1.6386597 0,0.8849215 -0.61178,1.6278075 -1.55133,1.6278075 -0.93954,0 -1.55132,-0.742886 -1.55132,-1.6278075 0,-0.8849207 0.61178,-1.6386597 1.55132,-1.6386597 z m -7.57083,4.4682222 h 4.38091 v -1.376544 h -2.85141 V 4.3862106 h -1.5295 z" />
    </g>
  </g>
</svg>
