<?xml version="1.0" encoding="UTF-8" standalone="no"?>
<!-- Created with Inkscape (http://www.inkscape.org/) -->

<svg
   width="37.146118mm"
   height="30.574532mm"
   viewBox="0 0 37.146118 30.574532"
   version="1.1"
   id="svg5"
   xmlns="http://www.w3.org/2000/svg"
   xmlns:svg="http://www.w3.org/2000/svg">
  <defs
     id="defs2" />
  <g
     id="layer5"
     transform="translate(-125.15589,-122.0606)">
    <g
       id="g10666"
       transform="translate(39.09919,93.459889)">
      <path
         id="rect10638"
         style="fill:#171717;stroke-width:0.1"
         transform="translate(-36.201289,-97.740135)"
         d="m 122.25798,126.34084 h 37.14611 v 30.57453 h -37.14611 z" />
      <path
         id="path10650"
         style="color:#000000;fill:#fcfcfc;fill-opacity:1;stroke:#171717;stroke-width:0.4;stroke-dasharray:none;stroke-opacity:1"
         d="m 90.679338,33.129913 v 0.994771 3.703133 h 4.61729 l -0.0052,-4.697904 z m 27.885632,0.07028 -1.98902,0.0026 0.0155,6.787699 h -2.06654 l -0.0532,-3.70675 1.24696,-1.477946 -1.51981,-1.282093 -2.24585,2.661337 0.0496,-2.982247 -7.66516,0.05168 v 6.877617 l -0.86248,0.0041 v -6.837826 l -8.905917,5.184697 v 4.394563 l -3.894852,0.0155 0.0078,1.989026 5.876127,-0.02377 v -5.230688 l 4.927862,-2.869593 v 3.386874 l -3.974948,0.0186 v 4.69222 h 5.730918 v -1.988509 h -3.742409 v -0.722436 l 4.837949,-0.02377 v 2.66237 h 14.24823 V 42.794956 H 108.979 l 3.53725,-4.193026 0.0486,3.377055 h 6.02083 z m -25.896606,1.918746 h 0.636654 v 0.719853 h -0.636654 z m 17.311606,0.08578 -0.0563,3.385323 -0.6506,0.771012 -0.0129,-3.193087 -1.98903,0.0078 0.0264,6.619234 h -0.97152 V 35.23056 Z" />
      <path
         id="path10662"
         style="font-size:11.425px;font-family:'Cal Sans';-inkscape-font-specification:'Cal Sans, Normal';fill:#fcfcfc;fill-opacity:1;stroke:#171717;stroke-width:0.2;stroke-dasharray:none;stroke-opacity:1"
         d="m 115.16932,54.477562 c 1.06253,0 1.5995,-0.445575 1.9194,-1.11965 v 0.971125 h 1.49668 v -8.34025 h -1.54238 v 3.31325 c -0.3199,-0.628375 -0.85687,-1.039675 -1.8737,-1.039675 -1.63377,0 -2.93622,1.405275 -2.93622,3.119025 0,1.71375 1.30245,3.096175 2.93622,3.096175 z m -1.39385,-3.1076 c 0,-0.925425 0.66265,-1.71375 1.6452,-1.71375 1.01683,0 1.66805,0.79975 1.66805,1.725175 0,0.925425 -0.65122,1.702325 -1.66805,1.702325 -0.98255,0 -1.6452,-0.811175 -1.6452,-1.71375 z m -4.92418,3.1076 c 1.17678,0 2.17075,-0.52555 2.6506,-1.268175 l -1.19962,-0.902575 c -0.2742,0.457 -0.78833,0.79975 -1.45098,0.79975 -0.7769,0 -1.30245,-0.491275 -1.47382,-1.1882 h 4.44432 c 0.0343,-0.194225 0.0457,-0.377025 0.0457,-0.5484 0,-1.71375 -1.2339,-3.13045 -3.0162,-3.13045 -1.7823,0 -3.07332,1.4167 -3.07332,3.13045 0,1.71375 1.2339,3.1076 3.07332,3.1076 z m -1.47382,-3.713125 c 0.17137,-0.70835 0.71977,-1.199625 1.45097,-1.199625 0.75405,0 1.31388,0.536975 1.48525,1.199625 z m -4.93561,3.5646 h 1.54238 v -3.03905 c 0,-0.993975 0.6855,-1.588075 1.57665,-1.588075 h 0.21707 v -1.450975 c -1.02825,-0.05712 -1.63377,0.4113 -1.83942,1.268175 v -1.131075 h -1.49668 z m -3.85022,0.148525 c 1.83943,0 3.16473,-1.39385 3.16473,-3.1076 0,-1.71375 -1.3253,-3.119025 -3.16473,-3.119025 -1.839425,0 -3.164725,1.405275 -3.164725,3.119025 0,1.71375 1.3253,3.1076 3.164725,3.1076 z m -1.62235,-3.1076 c 0,-0.925425 0.6398,-1.71375 1.62235,-1.71375 0.98255,0 1.62235,0.788325 1.62235,1.71375 0,0.925425 -0.6398,1.702325 -1.62235,1.702325 -0.98255,0 -1.62235,-0.7769 -1.62235,-1.702325 z m -6.295165,2.959075 h 4.581425 v -1.43955 h -2.981925 v -6.55795 h -1.5995 z" />
    </g>
  </g>
</svg>
