<?xml version="1.0" encoding="UTF-8" standalone="no"?>
<!-- Created with Inkscape (http://www.inkscape.org/) -->

<svg width="203.27203mm" height="83.575317mm" viewBox="0 0 203.27203 83.575317" version="1.1" id="svg21442"
   xmlns:xlink="http://www.w3.org/1999/xlink" xmlns="http://www.w3.org/2000/svg" xmlns:svg="http://www.w3.org/2000/svg">
   <defs id="defs21439">
      <linearGradient id="linearGradientTomato" x1="-8.4316597" y1="-4.7249284" x2="200.38174" y2="112.36438"
         gradientUnits="userSpaceOnUse">
         <stop style="stop-color:#ea9280;stop-opacity:1;" offset="0" id="stop30583" />
         <stop style="stop-color:#e54d2e;stop-opacity:1;" offset="0.25" id="stop32277" />
         <stop style="stop-color:#db4324;stop-opacity:1;" offset="0.5" id="stop32273" />
         <stop style="stop-color:#ca3214;stop-opacity:1;" offset="0.75" id="stop32275" />
         <stop style="stop-color:#341711;stop-opacity:1;" offset="1" id="stop30585" />
      </linearGradient>
      <linearGradient id="linearGradientGreen" x1="-8.4316597" y1="-4.7249284" x2="200.38174" y2="112.36438"
         gradientUnits="userSpaceOnUse">
         <stop style="stop-color:#5bb98c;stop-opacity:1;" offset="0" id="stop30583" />
         <stop style="stop-color:#30a46c;stop-opacity:1;" offset="0.25" id="stop32277" />
         <stop style="stop-color:#299764;stop-opacity:1;" offset="0.5" id="stop32273" />
         <stop style="stop-color:#18794e;stop-opacity:1;" offset="0.75" id="stop32275" />
         <stop style="stop-color:#153226;stop-opacity:1;" offset="1" id="stop30585" />
      </linearGradient>
      <filter style="color-interpolation-filters:sRGB" id="filter13042" x="-0.050009012" y="-0.15638316"
         width="1.100018" height="1.4143012">
         <feFlood flood-opacity="0.678431" flood-color="rgb(0,0,0)" result="flood" id="feFlood13032" />
         <feComposite in="flood" in2="SourceGraphic" operator="in" result="composite1" id="feComposite13034" />
         <feGaussianBlur in="composite1" stdDeviation="3.85048" result="blur" id="feGaussianBlur13036" />
         <feOffset dx="0" dy="6" result="offset" id="feOffset13038" />
         <feComposite in="SourceGraphic" in2="offset" operator="over" result="composite2" id="feComposite13040" />
      </filter>
   </defs>
   <g id="layer1" transform="translate(-2.1830225,-4.0724858)">
      <g id="layer8" style="transform: scale(.9) translateX(12px);">
         <path id="rect53442" style="filter:url(#filter13042);fill:#171717;stroke-width:0.137795"
            d="M 3.0750426,4.0724857 H 206.50638 c 0.49418,0 0.89202,0.397841 0.89202,0.89202 V 68.805298 c 0,0.494179 -0.39784,0.89202 -0.89202,0.89202 H 3.0750426 c -0.494179,0 -0.8920198,-0.397841 -0.8920198,-0.89202 V 4.9645057 c 0,-0.494179 0.3978408,-0.89202 0.8920198,-0.89202 z" />
         <path id="path32429" style="display:none;fill:#171717;stroke:none;stroke-width:0;stroke-dasharray:none"
            d="M 2.4851161,29.63404 H 207.7005 V 95.258874 H 2.4851161 Z" />
         <!-- BLOCKS -->
         <path id="path53031"
            d="m 5.7812564,7.6669097 v 0.768945 2.8845783 h 3.59823 l -0.0062,-3.6535233 z m 3.59823,3.6535233 v 0.775664 2.883028 h 3.5982306 l -0.0047,-3.658692 z m 3.5982306,3.658692 v 0.77463 2.884578 h 3.59823 l -0.0062,-3.659208 z m 3.59823,3.659208 v 0.77618 2.883028 h 3.59823 l -0.0047,-3.659208 z m 3.59823,3.659208 v 0.774113 2.885095 h 3.59823 l -0.0062,-3.659208 z m 3.59823,3.659208 v 0.775664 2.883028 h 3.598229 l -0.0047,-3.658692 z m 3.598229,3.658692 v 0.77463 2.884578 h 3.597714 l -0.0062,-3.659208 z m 3.597714,3.659208 v 0.775663 2.883545 h 3.59823 v 0.772563 2.884578 h 3.59823 l -0.0062,-3.659208 h -3.59203 l -0.0041,-3.657141 z m 7.19646,7.316349 v 0.775664 2.883544 h 3.59823 l -0.0047,-3.659208 z m 3.59823,3.659208 v 0.774113 2.884579 h 3.59823 l -0.0062,-3.658692 z m 3.59823,3.658692 v 0.77618 2.883028 h 3.59823 l -0.0047,-3.659208 z m 3.59823,3.659208 v 0.0016 0.77308 0.0015 2.883028 0.0016 h 3.59823 v 0.774113 0.0016 2.881478 0.0021 h 3.59823 v 0.772562 0.0016 2.883028 0.0016 h 3.59823 v 0.77463 0.0016 2.881478 h 3.59823 l -0.0047,-3.657658 v -0.0016 h -3.59353 l -0.0062,-3.657141 v -0.0021 h -3.59203 l -0.0047,-3.657142 v -0.0016 h -3.59353 l -0.0062,-3.657658 v -0.0016 z M 12.977717,7.6669097 v 0.768945 2.8845783 h 3.59823 l -0.0062,-3.6535233 z m 3.59823,3.6535233 v 0.775664 2.883028 h 3.59823 l -0.0047,-3.658692 z m 3.59823,3.658692 v 0.77463 2.884578 h 3.59823 l -0.0062,-3.659208 z m 3.59823,3.659208 v 0.77618 2.883028 h 3.598229 l -0.0047,-3.659208 z m 3.598229,3.659208 v 0.774113 2.885095 h 3.597714 l -0.0062,-3.659208 z m 3.597714,3.659208 v 0.775664 2.883028 h 3.59823 l -0.0041,-3.658692 z m 3.59823,3.658692 v 0.77463 2.884578 h 3.59823 l -0.0062,-3.659208 z m 3.59823,3.659208 v 0.775663 2.883545 h 3.59823 v 0.772563 2.884578 h 3.59823 l -0.0062,-3.659208 h -3.59203 l -0.0047,-3.657141 z m 7.19646,7.316349 v 0.775664 2.883544 h 3.59823 l -0.0047,-3.659208 z m 3.59823,3.659208 v 0.774113 2.884579 h 3.59823 l -0.0062,-3.658692 z m 3.59823,3.658692 v 0.77618 2.883028 h 3.59823 l -0.0047,-3.659208 z m 3.59823,3.659208 v 0.0016 0.77308 0.0015 2.883028 0.0016 h 3.59823 v 0.774113 0.0016 2.881478 0.0021 h 3.59823 v 0.772562 0.0016 2.883028 0.0016 h 3.59823 v 0.77463 0.0016 2.881478 h 3.598229 l -0.0046,-3.657658 v -0.0016 H 66.95065 l -0.0062,-3.657141 v -0.0021 h -3.59203 l -0.0047,-3.657142 v -0.0016 h -3.59353 l -0.0062,-3.657658 v -0.0016 z M 20.174177,7.6669097 v 0.768945 2.8845783 h 3.59823 l -0.0062,-3.6535233 z m 3.59823,3.6535233 v 0.775664 2.883028 h 3.598229 l -0.0047,-3.658692 z m 3.598229,3.658692 v 0.77463 2.884578 h 3.597714 l -0.0062,-3.659208 z m 3.597714,3.659208 v 0.77618 2.883028 h 3.59823 l -0.0041,-3.659208 z m 3.59823,3.659208 v 0.774113 2.885095 h 3.59823 l -0.0062,-3.659208 z m 3.59823,3.659208 v 0.775664 2.883028 h 3.59823 l -0.0047,-3.658692 z m 3.59823,3.658692 v 0.77463 2.884578 h 3.59823 l -0.0062,-3.659208 z m 3.59823,3.659208 v 0.775663 2.883545 h 3.59823 v 0.772563 2.884578 h 3.59823 L 52.55153,36.93179 H 48.9595 l -0.0047,-3.657141 z m 7.19646,7.316349 v 0.775664 2.883544 h 3.59823 l -0.0047,-3.659208 z m 3.59823,3.659208 v 0.774113 2.884579 h 3.59823 l -0.0062,-3.658692 z m 3.59823,3.658692 v 0.77618 2.883028 h 3.59823 l -0.0047,-3.659208 z m 3.59823,3.659208 v 0.0016 0.77308 0.0015 2.883028 0.0016 h 3.59823 v 0.774113 0.0016 2.881478 0.0021 h 3.598229 v 0.772562 0.0016 2.883028 0.0016 h 3.597714 v 0.77463 0.0016 2.881478 h 3.59823 l -0.0047,-3.657658 v -0.0016 h -3.593579 l -0.0062,-3.657141 v -0.0021 h -3.591513 l -0.0046,-3.657142 v -0.0016 H 66.95065 l -0.0062,-3.657658 v -0.0016 z M 27.370636,7.6669097 v 0.768945 2.8845783 h 3.597714 l -0.0062,-3.6535233 z m 3.597714,3.6535233 v 0.775664 2.883028 h 3.59823 l -0.0041,-3.658692 z m 3.59823,3.658692 v 0.77463 2.884578 h 3.59823 l -0.0062,-3.659208 z m 3.59823,3.659208 v 0.77618 2.883028 h 3.59823 l -0.0047,-3.659208 z m 3.59823,3.659208 v 0.774113 2.885095 h 3.59823 l -0.0062,-3.659208 z m 3.59823,3.659208 v 0.775664 2.883028 h 3.59823 l -0.0047,-3.658692 z m 3.59823,3.658692 v 0.77463 2.884578 h 3.59823 l -0.0062,-3.659208 z m 3.59823,3.659208 v 0.775663 2.883545 h 3.59823 v 0.772563 2.884578 h 3.59823 l -0.0062,-3.659208 h -3.59203 l -0.0047,-3.657141 z m 7.19646,7.316349 v 0.775664 2.883544 h 3.59823 l -0.0047,-3.659208 z m 3.59823,3.659208 v 0.774113 2.884579 h 3.59823 l -0.0062,-3.658692 z m 3.59823,3.658692 v 0.77618 2.883028 h 3.598229 l -0.0046,-3.659208 z m 3.598229,3.659208 v 0.0016 0.77308 0.0015 2.883028 0.0016 h 3.597714 v 0.774113 0.0016 2.881478 0.0021 h 3.59823 v 0.772562 0.0016 2.883028 0.0016 h 3.59823 v 0.77463 0.0016 2.881478 h 3.59823 l -0.0047,-3.657658 v -0.0016 h -3.593579 l -0.0062,-3.657141 v -0.0021 h -3.592028 l -0.0047,-3.657142 v -0.0016 h -3.593579 l -0.0062,-3.657658 v -0.0016 z M 34.56658,7.6669097 v 0.768945 2.8845783 h 3.59823 l -0.0062,-3.6535233 z m 3.59823,3.6535233 v 0.775664 2.883028 h 3.59823 l -0.0047,-3.658692 z m 3.59823,3.658692 v 0.77463 2.884578 h 3.59823 l -0.0062,-3.659208 z m 3.59823,3.659208 v 0.77618 2.883028 h 3.59823 l -0.0047,-3.659208 z m 3.59823,3.659208 v 0.774113 2.885095 h 3.59823 l -0.0062,-3.659208 z m 3.59823,3.659208 v 0.775664 2.883028 h 3.59823 l -0.0047,-3.658692 z m 3.59823,3.658692 v 0.77463 2.884578 h 3.59823 l -0.0062,-3.659208 z m 3.59823,3.659208 v 0.775663 2.883545 h 3.59823 v 0.772563 2.884578 h 3.59823 l -0.0062,-3.659208 h -3.59203 l -0.0047,-3.657141 z m 7.19646,7.316349 v 0.775664 2.883544 h 3.598229 l -0.0046,-3.659208 z m 3.598229,3.659208 v 0.774113 2.884579 h 3.597714 l -0.0062,-3.658692 z m 3.597714,3.658692 v 0.77618 2.883028 h 3.59823 l -0.0047,-3.659208 z m 3.59823,3.659208 v 0.0016 0.77308 0.0015 2.883028 0.0016 h 3.59823 v 0.774113 0.0016 2.881478 0.0021 h 3.59823 v 0.772562 0.0016 2.883028 0.0016 h 3.59823 v 0.77463 0.0016 2.881478 h 3.59823 l -0.0047,-3.657658 v -0.0016 h -3.593579 l -0.0062,-3.657141 v -0.0021 h -3.592028 l -0.0047,-3.657142 v -0.0016 h -3.593579 l -0.0062,-3.657658 v -0.0016 z M 41.76304,7.6669097 v 0.768945 2.8845783 h 3.59823 l -0.0062,-3.6535233 z m 3.59823,3.6535233 v 0.775664 2.883028 h 3.59823 l -0.0047,-3.658692 z m 3.59823,3.658692 v 0.77463 2.884578 h 3.59823 l -0.0062,-3.659208 z m 3.59823,3.659208 v 0.77618 2.883028 h 3.59823 l -0.0047,-3.659208 z m 3.59823,3.659208 v 0.774113 2.885095 h 3.59823 l -0.0062,-3.659208 z m 3.59823,3.659208 v 0.775664 2.883028 h 3.59823 l -0.0047,-3.658692 z m 3.59823,3.658692 v 0.77463 2.884578 h 3.59823 l -0.0062,-3.659208 z m 3.59823,3.659208 v 0.775663 2.883545 h 3.598229 v 0.772563 2.884578 h 3.597714 l -0.0062,-3.659208 H 70.54888 l -0.0046,-3.657141 z m 7.195943,7.316349 v 0.775664 2.883544 h 3.59823 l -0.0047,-3.659208 z m 3.59823,3.659208 v 0.774113 2.884579 h 3.59823 l -0.0062,-3.658692 z m 3.59823,3.658692 v 0.77618 2.883028 h 3.59823 l -0.0047,-3.659208 z m 3.59823,3.659208 v 0.0016 0.77308 0.0015 2.883028 0.0016 h 3.59823 v 0.774113 0.0016 2.881478 0.0021 h 3.59823 v 0.772562 0.0016 2.883028 0.0016 h 3.59823 v 0.77463 0.0016 2.881478 h 3.59823 l -0.0047,-3.657658 v -0.0016 h -3.593579 l -0.0062,-3.657141 v -0.0021 h -3.592028 l -0.0047,-3.657142 v -0.0016 h -3.593579 l -0.0062,-3.657658 v -0.0016 z M 48.9595,7.6669097 v 0.768945 2.8845783 h 3.59823 l -0.0062,-3.6535233 z m 3.59823,3.6535233 v 0.775664 2.883028 h 3.59823 l -0.0047,-3.658692 z m 3.59823,3.658692 v 0.77463 2.884578 h 3.59823 l -0.0062,-3.659208 z m 3.59823,3.659208 v 0.77618 2.883028 h 3.59823 l -0.0047,-3.659208 z m 3.59823,3.659208 v 0.774113 2.885095 h 3.59823 l -0.0062,-3.659208 z m 3.59823,3.659208 v 0.775664 2.883028 h 3.598229 l -0.0046,-3.658692 z m 3.598229,3.658692 v 0.77463 2.884578 h 3.597714 l -0.0062,-3.659208 z m 3.597714,3.659208 v 0.775663 2.883545 h 3.59823 v 0.772563 2.884578 h 3.59823 l -0.0062,-3.659208 h -3.592028 l -0.0047,-3.657141 z m 7.19646,7.316349 v 0.775664 2.883544 h 3.59823 l -0.0047,-3.659208 z m 3.59823,3.659208 v 0.774113 2.884579 h 3.59823 l -0.0062,-3.658692 z m 3.59823,3.658692 v 0.77618 2.883028 h 3.59823 l -0.0047,-3.659208 z m 3.59823,3.659208 v 0.0016 0.77308 0.0015 2.883028 0.0016 h 3.59823 v 0.774113 0.0016 2.881478 0.0021 h 3.59823 v 0.772562 0.0016 2.883028 0.0016 h 3.598237 v 0.77463 0.0016 2.881478 h 3.59874 v -0.01395 l -0.005,-3.643705 h -5.2e-4 v -0.0016 h -3.59306 l -0.006,-3.657141 v -0.0021 h -3.592031 l -0.0047,-3.657142 v -0.0016 H 95.73629 l -0.0062,-3.657658 v -0.0016 z M 56.15596,7.6669097 v 0.768945 2.8845783 h 3.59823 l -0.0062,-3.6535233 z m 3.59823,3.6535233 v 0.775664 2.883028 h 3.59823 l -0.0047,-3.658692 z m 3.59823,3.658692 v 0.77463 2.884578 h 3.59823 l -0.0062,-3.659208 z m 3.59823,3.659208 v 0.77618 2.883028 h 3.598229 l -0.0046,-3.659208 z m 3.598229,3.659208 v 0.774113 2.885095 h 3.597714 l -0.0062,-3.659208 z m 3.597714,3.659208 v 0.775664 2.883028 h 3.59823 l -0.0047,-3.658692 z m 3.59823,3.658692 v 0.77463 2.884578 h 3.59823 l -0.0062,-3.659208 z m 3.59823,3.659208 v 0.775663 2.883545 h 3.59823 v 0.772563 2.884578 h 3.59823 l -0.0062,-3.659208 h -3.592028 l -0.0047,-3.657141 z m 7.19646,7.316349 v 0.775664 2.883544 h 3.59823 l -0.0047,-3.659208 z m 3.59823,3.659208 v 0.774113 2.884579 h 3.59823 l -0.0062,-3.658692 z m 3.59823,3.658692 v 0.77618 2.883028 h 3.59823 l -0.0047,-3.659208 z m 3.59823,3.659208 v 0.0016 0.77308 0.0015 2.883028 0.0016 h 3.598237 v 0.774113 0.0016 2.881478 0.0021 h 3.59823 v 0.772562 0.0016 2.883028 0.0016 h 3.59823 v 0.77463 0.0016 2.881478 h 3.59823 l -0.005,-3.657658 v -0.0016 h -3.59255 l -0.006,-3.657141 v -0.0021 h -3.59203 v -0.0186 l -0.005,-3.638538 h -5.2e-4 v -0.0016 h -3.59306 l -0.006,-3.657658 v -0.0016 z M 63.35242,7.6669097 v 0.768945 2.8845783 h 3.59823 l -0.0062,-3.6535233 z m 3.59823,3.6535233 v 0.775664 2.883028 h 3.598229 l -0.0046,-3.658692 z m 3.598229,3.658692 v 0.77463 2.884578 h 3.597714 l -0.0062,-3.659208 z m 3.597714,3.659208 v 0.77618 2.883028 h 3.59823 l -0.0047,-3.659208 z m 3.59823,3.659208 v 0.774113 2.885095 h 3.59823 l -0.0062,-3.659208 z m 3.59823,3.659208 v 0.775664 2.883028 h 3.59823 l -0.0047,-3.658692 z m 3.59823,3.658692 v 0.77463 2.884578 h 3.59823 l -0.0062,-3.659208 z m 3.59823,3.659208 v 0.775663 2.883545 h 3.59823 v 0.772563 2.884578 h 3.59823 l -0.0062,-3.659208 h -3.592028 l -0.0047,-3.657141 z m 7.19646,7.316349 v 0.775664 2.883544 h 3.59823 l -0.0047,-3.659208 z m 3.59823,3.659208 v 0.774113 2.884579 h 3.598237 l -0.006,-3.658692 z m 3.598237,3.658692 v 0.77618 2.883028 h 3.59823 l -0.005,-3.659208 z m 3.59823,3.659208 v 0.0016 0.77308 0.0015 2.883028 0.0016 h 3.59823 v 0.774113 0.0016 2.881478 0.0021 h 3.59771 v 0.772562 0.0016 2.883028 0.0016 h 3.59823 v 0.77463 0.0016 2.881478 h 3.59875 l -0.005,-3.657658 v -0.0016 h -3.59306 l -0.006,-3.657141 v -0.0021 h -3.59202 l -0.005,-3.657142 v -0.0016 h -3.59254 l -0.006,-3.657658 v -0.0016 z M 70.548879,7.6669097 v 0.768945 2.8845783 h 3.597714 l -0.0062,-3.6535233 z m 3.597714,3.6535233 v 0.775664 2.883028 h 3.59823 l -0.0047,-3.658692 z m 3.59823,3.658692 v 0.77463 2.884578 h 3.59823 l -0.0062,-3.659208 z m 3.59823,3.659208 v 0.77618 2.883028 h 3.59823 l -0.0047,-3.659208 z m 3.59823,3.659208 v 0.774113 2.885095 h 3.59823 l -0.0062,-3.659208 z m 3.59823,3.659208 v 0.775664 2.883028 h 3.59823 l -0.0047,-3.658692 z m 3.59823,3.658692 v 0.77463 2.884578 h 3.59823 l -0.0062,-3.659208 z m 3.59823,3.659208 v 0.775663 2.883545 h 3.59823 v 0.772563 2.884578 h 3.598237 l -0.006,-3.659208 h -3.592027 l -0.0047,-3.657141 z m 7.196467,7.316349 v 0.775664 2.883544 h 3.59823 l -0.005,-3.659208 z m 3.59823,3.659208 v 0.774113 2.884579 h 3.59823 l -0.006,-3.658692 z m 3.59823,3.658692 v 0.77618 2.883028 h 3.59771 l -0.005,-3.659208 z m 3.59771,3.659208 v 0.0016 0.77308 0.0015 2.883028 0.0016 h 3.59823 v 0.774113 0.0016 2.881478 0.0021 h 3.59823 v 0.772562 0.0016 2.883028 0.0016 h 3.59823 v 0.77463 0.0016 2.881478 h 3.59875 l -0.005,-3.657658 v -0.0016 h -3.59306 l -0.006,-3.657141 v -0.0021 h -3.59202 l -0.005,-3.657142 v -0.0016 h -3.59306 l -0.006,-3.657658 v -0.0016 z M 77.744823,7.6669097 v 0.768945 2.8845783 h 3.59823 l -0.0062,-3.6535233 z m 3.59823,3.6535233 v 0.775664 2.883028 h 3.59823 l -0.0047,-3.658692 z m 3.59823,3.658692 v 0.77463 2.884578 h 3.59823 l -0.0062,-3.659208 z m 3.59823,3.659208 v 0.77618 2.883028 h 3.59823 l -0.0047,-3.659208 z m 3.59823,3.659208 v 0.774113 2.885095 h 3.59823 l -0.0062,-3.659208 z m 3.59823,3.659208 v 0.775664 2.883028 h 3.59823 l -0.0047,-3.658692 z m 3.59823,3.658692 v 0.77463 2.884578 h 3.598237 l -0.006,-3.659208 z m 3.598237,3.659208 v 0.775663 2.883545 h 3.59823 v 0.772563 2.884578 h 3.59823 l -0.006,-3.659208 h -3.59202 l -0.005,-3.657141 z m 7.19646,7.316349 v 0.775664 2.883544 h 3.59771 l -0.005,-3.659208 z m 3.59771,3.659208 v 0.774113 2.884579 h 3.59823 l -0.006,-3.658692 z m 3.59823,3.658692 v 0.77618 2.883028 h 3.59823 l -0.005,-3.659208 z m 3.59823,3.659208 v 0.0016 0.77308 0.0015 2.883028 0.0016 h 3.59823 v 0.774113 0.0016 2.881478 0.0021 h 3.59823 v 0.772562 0.0016 2.883028 0.0016 h 3.59823 v 0.77463 0.0016 2.881478 h 3.59875 l -0.005,-3.657658 v -0.0016 h -3.59306 l -0.006,-3.657141 v -0.0021 h -3.59202 l -0.005,-3.657142 v -0.0016 h -3.59306 l -0.006,-3.657658 v -0.0016 z M 84.941283,7.6669097 v 0.768945 2.8845783 h 3.59823 l -0.0062,-3.6535233 z m 3.59823,3.6535233 v 0.775664 2.883028 h 3.59823 l -0.0047,-3.658692 z m 3.59823,3.658692 v 0.77463 2.884578 h 3.59823 l -0.0062,-3.659208 z m 3.59823,3.659208 v 0.77618 2.883028 h 3.59823 l -0.0047,-3.659208 z m 3.59823,3.659208 v 0.774113 2.885095 h 3.598237 l -0.006,-3.659208 z m 3.598237,3.659208 v 0.775664 2.883028 h 3.59823 l -0.005,-3.658692 z m 3.59823,3.658692 v 0.77463 2.884578 h 3.59823 l -0.006,-3.659208 z m 3.59823,3.659208 v 0.775663 2.883545 h 3.59771 v 0.772563 2.884578 h 3.59823 l -0.006,-3.659208 h -3.59203 l -0.005,-3.657141 z m 7.19594,7.316349 v 0.775664 2.883544 h 3.59823 l -0.005,-3.659208 z m 3.59823,3.659208 v 0.774113 2.884579 h 3.59823 l -0.006,-3.658692 z m 3.59823,3.658692 v 0.77618 2.883028 h 3.59823 l -0.005,-3.659208 z m 3.59823,3.659208 v 0.0016 0.77308 0.0015 2.883028 0.0016 h 3.59823 v 0.774113 0.0016 2.881478 0.0021 h 3.59823 v 0.772562 0.0016 2.883028 0.0016 h 3.59823 v 0.77463 0.0016 2.881478 h 3.59875 l -0.005,-3.657658 v -0.0016 h -3.59306 l -0.006,-3.657141 v -0.0021 h -3.59202 l -0.005,-3.657142 v -0.0016 h -3.59306 l -0.006,-3.657658 v -0.0016 z M 92.137743,7.6669097 v 0.768945 2.8845783 h 3.59823 l -0.0062,-3.6535233 z m 3.59823,3.6535233 v 0.775664 2.883028 h 3.59823 l -0.0047,-3.658692 z m 3.59823,3.658692 v 0.77463 2.884578 h 3.598237 l -0.006,-3.659208 z m 3.598237,3.659208 v 0.77618 2.883028 h 3.59823 l -0.005,-3.659208 z m 3.59823,3.659208 v 0.774113 2.885095 h 3.59823 l -0.006,-3.659208 z m 3.59823,3.659208 v 0.775664 2.883028 h 3.59771 l -0.005,-3.658692 z m 3.59771,3.658692 v 0.77463 2.884578 h 3.59823 l -0.006,-3.659208 z m 3.59823,3.659208 v 0.775663 2.883545 h 3.59823 v 0.772563 2.884578 h 3.59823 l -0.006,-3.659208 h -3.59203 l -0.005,-3.657141 z m 7.19646,7.316349 v 0.775664 2.883544 h 3.59823 l -0.005,-3.659208 z m 3.59823,3.659208 v 0.774113 2.884579 h 3.59823 l -0.006,-3.658692 z m 3.59823,3.658692 v 0.77618 2.883028 h 3.59823 l -0.005,-3.659208 z m 3.59823,3.659208 v 0.0016 0.77308 0.0015 2.883028 0.0016 h 3.59823 v 0.774113 0.0016 2.881478 0.0021 h 3.59823 v 0.772562 0.0016 2.883028 0.0016 h 3.59823 v 0.77463 0.0016 2.881478 h 3.59875 l -0.005,-3.657658 v -0.0016 h -3.59306 l -0.006,-3.657141 v -0.0021 h -3.59202 l -0.005,-3.657142 v -0.0016 h -3.59306 l -0.006,-3.657658 v -0.0016 z M 99.334203,7.6669097 v 0.768945 2.8845783 h 3.598237 l -0.006,-3.6535233 z m 3.598237,3.6535233 v 0.775664 2.883028 h 3.59823 l -0.005,-3.658692 z m 3.59823,3.658692 v 0.77463 2.884578 h 3.59823 l -0.006,-3.659208 z m 3.59823,3.659208 v 0.77618 2.883028 h 3.59771 l -0.005,-3.659208 z m 3.59771,3.659208 v 0.774113 2.885095 h 3.59823 l -0.006,-3.659208 z m 3.59823,3.659208 v 0.775664 2.883028 h 3.59823 l -0.005,-3.658692 z m 3.59823,3.658692 v 0.77463 2.884578 h 3.59823 l -0.006,-3.659208 z m 3.59823,3.659208 v 0.775663 2.883545 h 3.59823 v 0.772563 2.884578 h 3.59823 l -0.006,-3.659208 h -3.59203 l -0.005,-3.657141 z m 7.19646,7.316349 v 0.775664 2.883544 h 3.59823 l -0.005,-3.659208 z m 3.59823,3.659208 v 0.774113 2.884579 h 3.59823 l -0.006,-3.658692 z m 3.59823,3.658692 v 0.77618 2.883028 h 3.59823 l -0.005,-3.659208 z m 3.59823,3.659208 v 0.0016 0.77308 0.0015 2.883028 0.0016 h 3.59823 v 0.774113 0.0016 2.881478 0.0021 h 3.59823 v 0.772562 0.0016 2.883028 0.0016 h 3.59771 v 0.77463 0.0016 2.881478 h 3.59823 l -0.005,-3.657658 v -0.0016 h -3.59306 l -0.006,-3.657141 v -0.0021 h -3.59151 l -0.005,-3.657142 v -0.0016 h -3.59306 l -0.006,-3.657658 v -0.0016 z M 106.53067,7.6669097 v 0.768945 2.8845783 h 3.59823 l -0.006,-3.6535233 z m 3.59823,3.6535233 v 0.775664 2.883028 h 3.59771 l -0.005,-3.658692 z m 3.59771,3.658692 v 0.77463 2.884578 h 3.59823 l -0.006,-3.659208 z m 3.59823,3.659208 v 0.77618 2.883028 h 3.59823 l -0.005,-3.659208 z m 3.59823,3.659208 v 0.774113 2.885095 h 3.59823 l -0.006,-3.659208 z m 3.59823,3.659208 v 0.775664 2.883028 h 3.59823 l -0.005,-3.658692 z m 3.59823,3.658692 v 0.77463 2.884578 h 3.59823 l -0.006,-3.659208 z m 3.59823,3.659208 v 0.775663 2.883545 h 3.59823 v 0.772563 2.884578 h 3.59823 l -0.006,-3.659208 h -3.59203 l -0.005,-3.657141 z m 7.19646,7.316349 v 0.775664 2.883544 h 3.59823 l -0.005,-3.659208 z m 3.59823,3.659208 v 0.774113 2.884579 h 3.59823 l -0.006,-3.658692 z m 3.59823,3.658692 v 0.77618 2.883028 h 3.59823 l -0.005,-3.659208 z m 3.59823,3.659208 v 0.0016 0.77308 0.0015 2.883028 0.0016 h 3.59771 v 0.774113 0.0016 2.881478 0.0021 h 3.59823 v -0.0021 l -0.005,-3.657142 v -0.0016 h -3.59306 l -0.006,-3.657658 v -0.0016 z M 113.72661,7.6669097 v 0.768945 2.8845783 h 3.59823 l -0.006,-3.6535233 z m 3.59823,3.6535233 v 0.775664 2.883028 h 3.59823 l -0.005,-3.658692 z m 3.59823,3.658692 v 0.77463 2.884578 h 3.59823 l -0.006,-3.659208 z m 3.59823,3.659208 v 0.77618 2.883028 h 3.59823 l -0.005,-3.659208 z m 3.59823,3.659208 v 0.774113 2.885095 h 3.59823 l -0.006,-3.659208 z m 3.59823,3.659208 v 0.775664 2.883028 h 3.59823 l -0.005,-3.658692 z m 3.59823,3.658692 v 0.77463 2.884578 h 3.59823 l -0.006,-3.659208 z m 3.59823,3.659208 v 0.775663 2.883545 h 3.59823 v 0.772563 2.884578 h 3.59823 l -0.006,-3.659208 h -3.59203 l -0.005,-3.657141 z m 7.19646,7.316349 v 0.775664 2.883544 h 3.59823 l -0.005,-3.659208 z m 3.59823,3.659208 v 0.774113 2.884579 h 3.59771 l -0.006,-3.658692 z m 3.59771,3.658692 v 0.77618 2.883028 h 3.59823 l -0.005,-3.659208 z M 120.92307,7.6669097 v 0.768945 2.8845783 h 3.59823 l -0.006,-3.6535233 z m 3.59823,3.6535233 v 0.775664 2.883028 h 3.59823 l -0.005,-3.658692 z m 3.59823,3.658692 v 0.77463 2.884578 h 3.59823 l -0.006,-3.659208 z m 3.59823,3.659208 v 0.77618 2.883028 h 3.59823 l -0.005,-3.659208 z m 3.59823,3.659208 v 0.774113 2.885095 h 3.59823 l -0.006,-3.659208 z m 3.59823,3.659208 v 0.775664 2.883028 h 3.59823 l -0.005,-3.658692 z m 3.59823,3.658692 v 0.77463 2.884578 h 3.59823 l -0.006,-3.659208 z m 3.59823,3.659208 v 0.775663 2.883545 h 3.59823 v 0.772563 2.884578 h 3.59771 l -0.006,-3.659208 h -3.59151 l -0.005,-3.657141 z m 7.19594,7.316349 v 0.775664 2.883544 h 3.59823 l -0.005,-3.659208 z M 128.11953,7.6669097 v 0.768945 2.8845783 h 3.59823 l -0.006,-3.6535233 z m 3.59823,3.6535233 v 0.775664 2.883028 h 3.59823 l -0.005,-3.658692 z m 3.59823,3.658692 v 0.77463 2.884578 h 3.59823 l -0.006,-3.659208 z m 3.59823,3.659208 v 0.77618 2.883028 h 3.59823 l -0.005,-3.659208 z m 3.59823,3.659208 v 0.774113 2.885095 h 3.59823 l -0.006,-3.659208 z m 3.59823,3.659208 v 0.775664 2.883028 h 3.59823 l -0.005,-3.658692 z m 3.59823,3.658692 v 0.77463 2.884578 h 3.59771 l -0.006,-3.659208 z m 3.59771,3.659208 v 0.775663 2.883545 h 3.59823 l -0.005,-3.659208 z M 135.31599,7.6669097 v 0.768945 2.8845783 h 3.59823 l -0.006,-3.6535233 z m 3.59823,3.6535233 v 0.775664 2.883028 h 3.59823 l -0.005,-3.658692 z m 3.59823,3.658692 v 0.77463 2.884578 h 3.59823 l -0.006,-3.659208 z m 3.59823,3.659208 v 0.77618 2.883028 h 3.59823 l -0.005,-3.659208 z m 3.59823,3.659208 v 0.774113 2.885095 h 3.59771 l -0.006,-3.659208 z m 3.59771,3.659208 v 0.775664 2.883028 h 3.59823 l -0.005,-3.658692 z M 142.51245,7.6669097 v 0.768945 2.8845783 h 3.59823 l -0.006,-3.6535233 z m 3.59823,3.6535233 v 0.775664 2.883028 h 3.59823 l -0.005,-3.658692 z m 3.59823,3.658692 v 0.77463 2.884578 h 3.59771 l -0.006,-3.659208 z m 3.59771,3.659208 v 0.77618 2.883028 h 3.59823 l -0.005,-3.659208 z M 149.70891,7.6669097 v 0.768945 2.8845783 h 3.59771 l -0.006,-3.6535233 z m 3.59771,3.6535233 v 0.775664 2.883028 h 3.59823 l -0.005,-3.658692 z m 3.71709,-3.6535233 v 0.768945 2.8845783 h 3.59823 l -0.006,-3.6535233 z m 3.59823,3.6535233 v 0.775664 2.883028 h 3.59823 l -0.005,-3.658692 z m 3.59823,3.658692 v 0.77463 2.884578 h 3.59823 l -0.006,-3.659208 z m 3.59823,3.659208 v 0.77618 2.883028 h 3.59823 l -0.005,-3.659208 z m 3.59823,3.659208 v 0.774113 2.885095 h 3.59823 l -0.006,-3.659208 z m 3.59823,3.659208 v 0.775664 2.883028 h 3.59823 l -0.005,-3.658692 z m 3.59823,3.658692 v 0.77463 2.884578 h 3.59823 l -0.006,-3.659208 z m 3.59823,3.659208 v 0.775663 2.883545 h 3.59771 v 0.772563 2.884578 h 3.59823 l -0.006,-3.659208 h -3.59203 l -0.005,-3.657141 z m 7.19594,7.316349 v 0.775664 2.883544 h 3.59823 l -0.005,-3.659208 z m 3.59823,3.659208 v 0.774113 2.884579 h 3.59823 l -0.006,-3.658692 z m 3.59823,3.658692 v 0.77618 2.883028 h 3.59823 l -0.005,-3.659208 z m 3.59823,3.659208 v 0.0016 0.77308 0.0015 2.883028 0.0016 h 3.59823 v -0.0016 l -0.006,-3.657658 v -0.0016 z M 164.22017,7.6669097 v 0.768945 2.8845783 h 3.59823 l -0.006,-3.6535233 z m 3.59823,3.6535233 v 0.775664 2.883028 h 3.59823 l -0.005,-3.658692 z m 3.59823,3.658692 v 0.77463 2.884578 h 3.59823 l -0.006,-3.659208 z m 3.59823,3.659208 v 0.77618 2.883028 h 3.59823 l -0.005,-3.659208 z m 3.59823,3.659208 v 0.774113 2.885095 h 3.59823 l -0.006,-3.659208 z m 3.59823,3.659208 v 0.775664 2.883028 h 3.59771 l -0.005,-3.658692 z m 3.59771,3.658692 v 0.77463 2.884578 h 3.59823 l -0.006,-3.659208 z m 3.59823,3.659208 v 0.775663 2.883545 h 3.59823 v 0.772563 2.884578 h 3.59823 l -0.006,-3.659208 h -3.59203 l -0.005,-3.657141 z m 7.19646,7.316349 v 0.775664 2.883544 h 3.59823 l -0.005,-3.659208 z m 3.59823,3.659208 v 0.774113 2.884579 h 3.59823 l -0.006,-3.658692 z M 171.41663,7.6669097 v 0.768945 2.8845783 h 3.59823 l -0.006,-3.6535233 z m 3.59823,3.6535233 v 0.775664 2.883028 h 3.59823 l -0.005,-3.658692 z m 3.59823,3.658692 v 0.77463 2.884578 h 3.59823 l -0.006,-3.659208 z m 3.59823,3.659208 v 0.77618 2.883028 h 3.59771 l -0.005,-3.659208 z m 3.59771,3.659208 v 0.774113 2.885095 h 3.59823 l -0.006,-3.659208 z m 3.59823,3.659208 v 0.775664 2.883028 h 3.59823 l -0.005,-3.658692 z m 3.59823,3.658692 v 0.77463 2.884578 h 3.59823 l -0.006,-3.659208 z m 3.59823,3.659208 v 0.775663 2.883545 h 3.59823 v 0.772563 2.884578 h 3.59823 l -0.006,-3.659208 h -3.59203 l -0.005,-3.657141 z M 178.61309,7.6669097 v 0.768945 2.8845783 h 3.59823 l -0.006,-3.6535233 z m 3.59823,3.6535233 v 0.775664 2.883028 h 3.59771 l -0.005,-3.658692 z m 3.59771,3.658692 v 0.77463 2.884578 h 3.59823 l -0.006,-3.659208 z m 3.59823,3.659208 v 0.77618 2.883028 h 3.59823 l -0.005,-3.659208 z m 3.59823,3.659208 v 0.774113 2.885095 h 3.59823 l -0.006,-3.659208 z m 3.59823,3.659208 v 0.775664 2.883028 h 3.59823 l -0.005,-3.658692 z m 3.59823,3.658692 v 0.77463 2.884578 h 3.59823 l -0.006,-3.659208 z M 185.80903,7.6669097 v 0.768945 2.8845783 h 3.59823 l -0.006,-3.6535233 z m 3.59823,3.6535233 v 0.775664 2.883028 h 3.59823 l -0.005,-3.658692 z m 3.59823,3.658692 v 0.77463 2.884578 h 3.59823 l -0.006,-3.659208 z m 3.59823,3.659208 v 0.77618 2.883028 h 3.59823 l -0.005,-3.659208 z m 3.59823,3.659208 v 0.774113 2.885095 h 3.59823 l -0.006,-3.659208 z M 193.00549,7.6669097 v 0.768945 2.8845783 h 3.59823 l -0.006,-3.6535233 z m 3.59823,3.6535233 v 0.775664 2.883028 h 3.59823 l -0.005,-3.658692 z m 3.59823,3.658692 v 0.77463 2.884578 h 3.59823 l -0.006,-3.659208 z m 0,-7.3122153 v 0.768945 2.8845783 h 3.59823 l -0.006,-3.6535233 z M 7.3299991,9.2115177 h 0.497644 v 0.560173 h -0.497644 z m 7.1964599,0 h 0.497644 v 0.560173 h -0.497644 z m 7.19646,0 h 0.497644 v 0.560173 h -0.497644 z m 7.19646,0 h 0.497127 v 0.560173 h -0.497127 z m 7.19646,0 h 0.497127 v 0.560173 h -0.497127 z m 7.195943,0 h 0.497644 v 0.560173 h -0.497644 z m 7.19646,0 h 0.497644 v 0.560173 h -0.497644 z m 7.19646,0 h 0.497644 v 0.560173 h -0.497644 z m 7.19646,0 h 0.497644 v 0.560173 h -0.497644 z m 7.19646,0 h 0.497127 v 0.560173 h -0.497127 z m 7.195943,0 h 0.497644 v 0.560173 h -0.497644 z m 7.19646,0 h 0.497644 v 0.560173 h -0.497644 z m 7.19646,0 h 0.497644 v 0.560173 h -0.497644 z m 7.196465,0 h 0.49764 v 0.560173 h -0.49764 z m 7.19646,0 h 0.49713 v 0.560173 h -0.49713 z m 7.19646,0 h 0.49713 v 0.560173 h -0.49713 z m 7.19594,0 h 0.49765 v 0.560173 h -0.49765 z m 7.19646,0 h 0.49765 v 0.560173 h -0.49765 z m 7.19646,0 h 0.49765 v 0.560173 h -0.49765 z m 7.19646,0 h 0.49765 v 0.560173 h -0.49765 z m 7.19646,0 h 0.49713 v 0.560173 h -0.49713 z m 7.3148,0 h 0.49764 v 0.560173 h -0.49764 z m 7.19646,0 h 0.49764 v 0.560173 h -0.49764 z m 7.19646,0 h 0.49764 v 0.560173 h -0.49764 z m 7.19646,0 h 0.49764 v 0.560173 h -0.49764 z m 7.19646,0 h 0.49713 v 0.560173 h -0.49713 z m 7.19594,0 h 0.49765 v 0.560173 h -0.49765 z m 7.19646,0 h 0.49765 v 0.560173 h -0.49765 z M 10.928229,12.870726 h 0.497644 v 0.559656 h -0.497644 z m 7.19646,0 h 0.497644 v 0.559656 h -0.497644 z m 7.19646,0 h 0.497644 v 0.559656 h -0.497644 z m 7.19646,0 h 0.497127 v 0.559656 h -0.497127 z m 7.195943,0 h 0.497644 v 0.559656 h -0.497644 z m 7.19646,0 h 0.497644 v 0.559656 h -0.497644 z m 7.19646,0 h 0.497644 v 0.559656 h -0.497644 z m 7.19646,0 h 0.497644 v 0.559656 h -0.497644 z m 7.19646,0 h 0.497127 v 0.559656 h -0.497127 z m 7.19646,0 h 0.497127 v 0.559656 h -0.497127 z m 7.195943,0 h 0.497644 v 0.559656 h -0.497644 z m 7.19646,0 h 0.497644 v 0.559656 h -0.497644 z m 7.19646,0 h 0.497644 v 0.559656 h -0.497644 z m 7.196465,0 h 0.49764 v 0.559656 h -0.49764 z m 7.19646,0 h 0.49713 v 0.559656 h -0.49713 z m 7.19594,0 h 0.49765 v 0.559656 h -0.49765 z m 7.19646,0 h 0.49765 v 0.559656 h -0.49765 z m 7.19646,0 h 0.49765 v 0.559656 h -0.49765 z m 7.19646,0 h 0.49765 v 0.559656 h -0.49765 z m 7.19646,0 h 0.49713 v 0.559656 h -0.49713 z m 7.19646,0 h 0.49713 v 0.559656 h -0.49713 z m 7.3148,0 h 0.49764 v 0.559656 h -0.49764 z m 7.19646,0 h 0.49764 v 0.559656 h -0.49764 z m 7.19646,0 h 0.49764 v 0.559656 h -0.49764 z m 7.19646,0 h 0.49713 v 0.559656 h -0.49713 z m 7.19594,0 h 0.49765 v 0.559656 H 190.956 Z m 7.19646,0 h 0.49765 v 0.559656 h -0.49765 z M 5.7812564,14.979125 v 0.77463 2.884578 h 3.59823 l -0.0062,-3.659208 z m 3.59823,3.659208 v 0.77618 2.883028 h 3.5982306 l -0.0047,-3.659208 z m 3.5982306,3.659208 v 0.774113 2.885095 h 3.59823 l -0.0062,-3.659208 z m 3.59823,3.659208 v 0.775664 2.883028 h 3.59823 l -0.0047,-3.658692 z m 3.59823,3.658692 v 0.77463 2.884578 h 3.59823 l -0.0062,-3.659208 z m 3.59823,3.659208 v 0.775663 2.883545 h 3.598229 v 0.772563 2.884578 h 3.597714 l -0.0062,-3.659208 h -3.591513 l -0.0047,-3.657141 z m 7.195943,7.316349 v 0.775664 2.883544 h 3.59823 l -0.0041,-3.659208 z m 3.59823,3.659208 v 0.774113 2.884579 h 3.59823 l -0.0062,-3.658692 z m 3.59823,3.658692 v 0.77618 2.883028 h 3.59823 l -0.0047,-3.659208 z m 3.59823,3.659208 v 0.0016 0.77308 0.0015 2.883028 0.0016 h 3.59823 v 0.774113 0.0016 2.881478 0.0021 h 3.59823 v 0.772562 0.0016 2.883028 0.0016 h 3.59823 v 0.77463 0.0016 2.881478 h 3.59823 l -0.0047,-3.657658 v -0.0016 h -3.59353 l -0.0062,-3.657141 v -0.0021 H 48.9595 l -0.0047,-3.657142 v -0.0016 h -3.59353 l -0.0062,-3.657658 v -0.0016 z M 157.02371,14.979125 v 0.77463 2.884578 h 3.59823 l -0.006,-3.659208 z m 3.59823,3.659208 v 0.77618 2.883028 h 3.59823 l -0.005,-3.659208 z m 3.59823,3.659208 v 0.774113 2.885095 h 3.59823 l -0.006,-3.659208 z m 3.59823,3.659208 v 0.775664 2.883028 h 3.59823 l -0.005,-3.658692 z m 3.59823,3.658692 v 0.77463 2.884578 h 3.59823 l -0.006,-3.659208 z m 3.59823,3.659208 v 0.775663 2.883545 h 3.59823 v 0.772563 2.884578 h 3.59823 l -0.006,-3.659208 h -3.59203 l -0.005,-3.657141 z m 7.19646,7.316349 v 0.775664 2.883544 h 3.59771 l -0.005,-3.659208 z m 3.59771,3.659208 v 0.774113 2.884579 h 3.59823 l -0.006,-3.658692 z m 3.59823,3.658692 v 0.77618 2.883028 h 3.59823 l -0.005,-3.659208 z m 3.59823,3.659208 v 0.0016 0.77308 0.0015 2.883028 0.0016 h 3.59823 v 0.774113 0.0016 2.881478 0.0021 h 3.59823 v 0.772562 0.0016 2.883028 0.0016 h 3.59823 v -0.0016 l -0.006,-3.657141 v -0.0021 h -3.59203 l -0.005,-3.657142 v -0.0016 h -3.59306 l -0.006,-3.657658 v -0.0016 z M 7.3299991,16.529935 h 0.497644 v 0.559655 h -0.497644 z m 7.1964599,0 h 0.497644 v 0.559655 h -0.497644 z m 7.19646,0 h 0.497644 v 0.559655 h -0.497644 z m 7.19646,0 h 0.497127 v 0.559655 h -0.497127 z m 7.19646,0 h 0.497127 v 0.559655 h -0.497127 z m 7.195943,0 h 0.497644 v 0.559655 h -0.497644 z m 7.19646,0 h 0.497644 v 0.559655 h -0.497644 z m 7.19646,0 h 0.497644 v 0.559655 h -0.497644 z m 7.19646,0 h 0.497644 v 0.559655 h -0.497644 z m 7.19646,0 h 0.497127 v 0.559655 h -0.497127 z m 7.195943,0 h 0.497644 v 0.559655 h -0.497644 z m 7.19646,0 h 0.497644 v 0.559655 h -0.497644 z m 7.19646,0 h 0.497644 v 0.559655 h -0.497644 z m 7.196465,0 h 0.49764 v 0.559655 h -0.49764 z m 7.19646,0 h 0.49713 v 0.559655 h -0.49713 z m 7.19646,0 h 0.49713 v 0.559655 h -0.49713 z m 7.19594,0 h 0.49765 v 0.559655 h -0.49765 z m 7.19646,0 h 0.49765 v 0.559655 h -0.49765 z m 7.19646,0 h 0.49765 v 0.559655 h -0.49765 z m 7.19646,0 h 0.49765 v 0.559655 h -0.49765 z m 7.19646,0 h 0.49713 v 0.559655 h -0.49713 z m 7.3148,0 h 0.49764 v 0.559655 h -0.49764 z m 7.19646,0 h 0.49764 v 0.559655 h -0.49764 z m 7.19646,0 h 0.49764 v 0.559655 h -0.49764 z m 7.19646,0 h 0.49764 v 0.559655 h -0.49764 z m 7.19646,0 h 0.49713 v 0.559655 h -0.49713 z m 7.19594,0 h 0.49765 v 0.559655 h -0.49765 z m 7.19646,0 h 0.49765 v 0.559655 h -0.49765 z M 10.928229,20.188626 h 0.497644 v 0.560173 h -0.497644 z m 7.19646,0 h 0.497644 v 0.560173 h -0.497644 z m 7.19646,0 h 0.497644 v 0.560173 h -0.497644 z m 7.19646,0 h 0.497127 v 0.560173 h -0.497127 z m 7.195943,0 h 0.497644 v 0.560173 h -0.497644 z m 7.19646,0 h 0.497644 v 0.560173 h -0.497644 z m 7.19646,0 h 0.497644 v 0.560173 h -0.497644 z m 7.19646,0 h 0.497644 v 0.560173 h -0.497644 z m 7.19646,0 h 0.497127 v 0.560173 h -0.497127 z m 7.19646,0 h 0.497127 v 0.560173 h -0.497127 z m 7.195943,0 h 0.497644 v 0.560173 h -0.497644 z m 7.19646,0 h 0.497644 v 0.560173 h -0.497644 z m 7.19646,0 h 0.497644 v 0.560173 h -0.497644 z m 7.196465,0 h 0.49764 v 0.560173 h -0.49764 z m 7.19646,0 h 0.49713 v 0.560173 h -0.49713 z m 7.19594,0 h 0.49765 v 0.560173 h -0.49765 z m 7.19646,0 h 0.49765 v 0.560173 h -0.49765 z m 7.19646,0 h 0.49765 v 0.560173 h -0.49765 z m 7.19646,0 h 0.49765 v 0.560173 h -0.49765 z m 7.19646,0 h 0.49713 v 0.560173 h -0.49713 z m 7.19646,0 h 0.49713 v 0.560173 h -0.49713 z m 7.3148,0 h 0.49764 v 0.560173 h -0.49764 z m 7.19646,0 h 0.49764 v 0.560173 h -0.49764 z m 7.19646,0 h 0.49764 v 0.560173 h -0.49764 z m 7.19646,0 h 0.49713 v 0.560173 h -0.49713 z m 7.19594,0 h 0.49765 v 0.560173 H 190.956 Z m 7.19646,0 h 0.49765 v 0.560173 h -0.49765 z M 5.7812564,22.297541 v 0.774113 2.885095 h 3.59823 l -0.0062,-3.659208 z m 3.59823,3.659208 v 0.775664 2.883028 h 3.5982306 l -0.0047,-3.658692 z m 3.5982306,3.658692 v 0.77463 2.884578 h 3.59823 l -0.0062,-3.659208 z m 3.59823,3.659208 v 0.775663 2.883545 h 3.59823 v 0.772563 2.884578 h 3.59823 l -0.0062,-3.659208 h -3.592028 l -0.0047,-3.657141 z m 7.19646,7.316349 v 0.775664 2.883544 h 3.598229 l -0.0047,-3.659208 z m 3.598229,3.659208 v 0.774113 2.884579 h 3.597714 l -0.0062,-3.658692 z m 3.597714,3.658692 v 0.77618 2.883028 h 3.59823 l -0.0041,-3.659208 z m 3.59823,3.659208 v 0.0016 0.77308 0.0015 2.883028 0.0016 h 3.59823 v 0.774113 0.0016 2.881478 0.0021 h 3.59823 v 0.772562 0.0016 2.883028 0.0016 h 3.59823 v 0.77463 0.0016 2.881478 h 3.59823 l -0.0047,-3.657658 v -0.0016 h -3.59353 l -0.0062,-3.657141 v -0.0021 h -3.59203 l -0.0047,-3.657142 v -0.0016 h -3.59353 l -0.0062,-3.657658 v -0.0016 z M 157.02371,22.297541 v 0.774113 2.885095 h 3.59823 l -0.006,-3.659208 z m 3.59823,3.659208 v 0.775664 2.883028 h 3.59823 l -0.005,-3.658692 z m 3.59823,3.658692 v 0.77463 2.884578 h 3.59823 l -0.006,-3.659208 z m 3.59823,3.659208 v 0.775663 2.883545 h 3.59823 v 0.772563 2.884578 h 3.59823 l -0.006,-3.659208 h -3.59203 l -0.005,-3.657141 z m 7.19646,7.316349 v 0.775664 2.883544 h 3.59823 l -0.005,-3.659208 z m 3.59823,3.659208 v 0.774113 2.884579 h 3.59823 l -0.006,-3.658692 z m 3.59823,3.658692 v 0.77618 2.883028 h 3.59771 l -0.005,-3.659208 z m 3.59771,3.659208 v 0.0016 0.77308 0.0015 2.883028 0.0016 h 3.59823 v 0.774113 0.0016 2.881478 0.0021 h 3.59823 v 0.772562 0.0016 2.883028 0.0016 h 3.59823 v 0.77463 0.0016 2.881478 h 3.59823 l -0.005,-3.657658 v -10e-4 h -3.59306 l -0.006,-3.657142 v -0.0026 h -3.59203 l -0.005,-3.657142 v -0.0016 h -3.59306 l -0.006,-3.657658 v -0.0016 z M 7.3299991,23.847834 h 0.497644 v 0.559656 h -0.497644 z m 7.1964599,0 h 0.497644 v 0.559656 h -0.497644 z m 7.19646,0 h 0.497644 v 0.559656 h -0.497644 z m 7.19646,0 h 0.497127 v 0.559656 h -0.497127 z m 7.19646,0 h 0.497127 v 0.559656 h -0.497127 z m 7.195943,0 h 0.497644 v 0.559656 h -0.497644 z m 7.19646,0 h 0.497644 v 0.559656 h -0.497644 z m 7.19646,0 h 0.497644 v 0.559656 h -0.497644 z m 7.19646,0 h 0.497644 v 0.559656 h -0.497644 z m 7.19646,0 h 0.497127 v 0.559656 h -0.497127 z m 7.195943,0 h 0.497644 v 0.559656 h -0.497644 z m 7.19646,0 h 0.497644 v 0.559656 h -0.497644 z m 7.19646,0 h 0.497644 v 0.559656 h -0.497644 z m 7.196465,0 h 0.49764 v 0.559656 h -0.49764 z m 7.19646,0 h 0.49713 v 0.559656 h -0.49713 z m 7.19646,0 h 0.49713 v 0.559656 h -0.49713 z m 7.19594,0 h 0.49765 v 0.559656 h -0.49765 z m 7.19646,0 h 0.49765 v 0.559656 h -0.49765 z m 7.19646,0 h 0.49765 v 0.559656 h -0.49765 z m 7.19646,0 h 0.49765 v 0.559656 h -0.49765 z m 7.19646,0 h 0.49713 v 0.559656 h -0.49713 z m 7.3148,0 h 0.49764 v 0.559656 h -0.49764 z m 7.19646,0 h 0.49764 v 0.559656 h -0.49764 z m 7.19646,0 h 0.49764 v 0.559656 h -0.49764 z m 7.19646,0 h 0.49764 v 0.559656 h -0.49764 z m 7.19646,0 h 0.49713 v 0.559656 h -0.49713 z m 7.19594,0 h 0.49765 v 0.559656 h -0.49765 z m 7.19646,0 h 0.49765 v 0.559656 h -0.49765 z M 10.928229,27.507042 h 0.497644 v 0.559656 h -0.497644 z m 7.19646,0 h 0.497644 v 0.559656 h -0.497644 z m 7.19646,0 h 0.497644 v 0.559656 h -0.497644 z m 7.19646,0 h 0.497127 v 0.559656 h -0.497127 z m 7.195943,0 h 0.497644 v 0.559656 h -0.497644 z m 7.19646,0 h 0.497644 v 0.559656 h -0.497644 z m 7.19646,0 h 0.497644 v 0.559656 h -0.497644 z m 7.19646,0 h 0.497644 v 0.559656 h -0.497644 z m 7.19646,0 h 0.497127 v 0.559656 h -0.497127 z m 7.19646,0 h 0.497127 v 0.559656 h -0.497127 z m 7.195943,0 h 0.497644 v 0.559656 h -0.497644 z m 7.19646,0 h 0.497644 v 0.559656 h -0.497644 z m 7.19646,0 h 0.497644 v 0.559656 h -0.497644 z m 7.196465,0 h 0.49764 v 0.559656 h -0.49764 z m 7.19646,0 h 0.49713 v 0.559656 h -0.49713 z m 7.19594,0 h 0.49765 v 0.559656 h -0.49765 z m 7.19646,0 h 0.49765 v 0.559656 h -0.49765 z m 7.19646,0 h 0.49765 v 0.559656 h -0.49765 z m 7.19646,0 h 0.49765 v 0.559656 h -0.49765 z m 7.19646,0 h 0.49713 v 0.559656 h -0.49713 z m 7.19646,0 h 0.49713 v 0.559656 h -0.49713 z m 7.3148,0 h 0.49764 v 0.559656 h -0.49764 z m 7.19646,0 h 0.49764 v 0.559656 h -0.49764 z m 7.19646,0 h 0.49764 v 0.559656 h -0.49764 z m 7.19646,0 h 0.49713 v 0.559656 h -0.49713 z m 7.19594,0 h 0.49765 v 0.559656 H 190.956 Z m 7.19646,0 h 0.49765 v 0.559656 h -0.49765 z M 5.7812564,29.615441 v 0.77463 2.884578 h 3.59823 l -0.0062,-3.659208 z m 3.59823,3.659208 v 0.775663 2.883545 h 3.5982306 v 0.772563 2.884578 h 3.59823 l -0.0062,-3.659208 h -3.592028 l -0.0047,-3.657141 z m 7.1964606,7.316349 v 0.775664 2.883544 h 3.59823 l -0.0047,-3.659208 z m 3.59823,3.659208 v 0.774113 2.884579 h 3.59823 l -0.0062,-3.658692 z m 3.59823,3.658692 v 0.77618 2.883028 h 3.598229 l -0.0047,-3.659208 z m 3.598229,3.659208 v 0.0016 0.77308 0.0015 2.883028 0.0016 h 3.597714 v 0.774113 0.0016 2.881478 0.0021 h 3.59823 v 0.772562 0.0016 2.883028 0.0016 h 3.59823 v 0.77463 0.0016 2.881478 h 3.59823 l -0.0047,-3.657658 v -0.0016 h -3.59353 l -0.0062,-3.657141 v -0.0021 h -3.59203 l -0.0041,-3.657142 v -0.0016 h -3.59413 l -0.0062,-3.657658 v -0.0016 z M 157.02371,29.615441 v 0.77463 2.884578 h 3.59823 l -0.006,-3.659208 z m 3.59823,3.659208 v 0.775663 2.883545 h 3.59823 v 0.772563 2.884578 h 3.59823 l -0.006,-3.659208 h -3.59203 l -0.005,-3.657141 z m 7.19646,7.316349 v 0.775664 2.883544 h 3.59823 l -0.005,-3.659208 z m 3.59823,3.659208 v 0.774113 2.884579 h 3.59823 l -0.006,-3.658692 z m 3.59823,3.658692 v 0.77618 2.883028 h 3.59823 l -0.005,-3.659208 z m 3.59823,3.659208 v 0.0016 0.77308 0.0015 2.883028 0.0016 h 3.59823 v 0.774113 0.0016 2.881478 0.0021 h 3.59771 v 0.772562 0.0016 2.883028 0.0016 h 3.59823 v 0.77463 0.0016 2.881478 h 3.59875 l -0.005,-3.657658 v -0.0016 h -3.59306 l -0.006,-3.657141 v -0.0021 h -3.59203 l -0.005,-3.657142 v -0.0016 h -3.59255 l -0.006,-3.657658 v -0.0016 z M 7.3299991,31.165734 h 0.497644 v 0.560172 h -0.497644 z m 7.1964599,0 h 0.497644 v 0.560172 h -0.497644 z m 7.19646,0 h 0.497644 v 0.560172 h -0.497644 z m 7.19646,0 h 0.497127 v 0.560172 h -0.497127 z m 7.19646,0 h 0.497127 v 0.560172 h -0.497127 z m 7.195943,0 h 0.497644 v 0.560172 h -0.497644 z m 7.19646,0 h 0.497644 v 0.560172 h -0.497644 z m 7.19646,0 h 0.497644 v 0.560172 h -0.497644 z m 7.19646,0 h 0.497644 v 0.560172 h -0.497644 z m 7.19646,0 h 0.497127 v 0.560172 h -0.497127 z m 7.195943,0 h 0.497644 v 0.560172 h -0.497644 z m 7.19646,0 h 0.497644 v 0.560172 h -0.497644 z m 7.19646,0 h 0.497644 v 0.560172 h -0.497644 z m 7.196465,0 h 0.49764 v 0.560172 h -0.49764 z m 7.19646,0 h 0.49713 v 0.560172 h -0.49713 z m 7.19646,0 h 0.49713 v 0.560172 h -0.49713 z m 7.19594,0 h 0.49765 v 0.560172 h -0.49765 z m 7.19646,0 h 0.49765 v 0.560172 h -0.49765 z m 7.19646,0 h 0.49765 v 0.560172 h -0.49765 z m 7.19646,0 h 0.49765 v 0.560172 h -0.49765 z m 7.19646,0 h 0.49713 v 0.560172 h -0.49713 z m 7.3148,0 h 0.49764 v 0.560172 h -0.49764 z m 7.19646,0 h 0.49764 v 0.560172 h -0.49764 z m 7.19646,0 h 0.49764 v 0.560172 h -0.49764 z m 7.19646,0 h 0.49764 v 0.560172 h -0.49764 z m 7.19646,0 h 0.49713 v 0.560172 h -0.49713 z m 7.19594,0 h 0.49765 v 0.560172 h -0.49765 z m 7.19646,0 h 0.49765 v 0.560172 h -0.49765 z M 10.928229,34.824942 h 0.497644 v 0.559656 h -0.497644 z m 7.19646,0 h 0.497644 v 0.559656 h -0.497644 z m 7.19646,0 h 0.497644 v 0.559656 h -0.497644 z m 7.19646,0 h 0.497127 v 0.559656 h -0.497127 z m 7.195943,0 h 0.497644 v 0.559656 h -0.497644 z m 7.19646,0 h 0.497644 v 0.559656 h -0.497644 z m 7.19646,0 h 0.497644 v 0.559656 h -0.497644 z m 7.19646,0 h 0.497644 v 0.559656 h -0.497644 z m 7.19646,0 h 0.497127 v 0.559656 h -0.497127 z m 7.19646,0 h 0.497127 v 0.559656 h -0.497127 z m 7.195943,0 h 0.497644 v 0.559656 h -0.497644 z m 7.19646,0 h 0.497644 v 0.559656 h -0.497644 z m 7.19646,0 h 0.497644 v 0.559656 h -0.497644 z m 7.196465,0 h 0.49764 v 0.559656 h -0.49764 z m 7.19646,0 h 0.49713 v 0.559656 h -0.49713 z m 7.19594,0 h 0.49765 v 0.559656 h -0.49765 z m 7.19646,0 h 0.49765 v 0.559656 h -0.49765 z m 7.19646,0 h 0.49765 v 0.559656 h -0.49765 z m 7.19646,0 h 0.49765 v 0.559656 h -0.49765 z m 7.19646,0 h 0.49713 v 0.559656 h -0.49713 z m 7.19646,0 h 0.49713 v 0.559656 h -0.49713 z m 7.3148,0 h 0.49764 v 0.559656 h -0.49764 z m 7.19646,0 h 0.49764 v 0.559656 h -0.49764 z m 7.19646,0 h 0.49764 v 0.559656 h -0.49764 z m 7.19646,0 h 0.49713 v 0.559656 h -0.49713 z m 7.19594,0 h 0.49765 v 0.559656 H 190.956 Z m 7.19646,0 h 0.49765 v 0.559656 h -0.49765 z M 5.7812564,36.93179 v 0.77463 2.884578 h 3.59823 l -0.0062,-3.659208 z m 3.59823,3.659208 v 0.775664 2.883544 h 3.5982306 l -0.0047,-3.659208 z m 3.5982306,3.659208 v 0.774113 2.884579 h 3.59823 l -0.0062,-3.658692 z m 3.59823,3.658692 v 0.77618 2.883028 h 3.59823 l -0.0047,-3.659208 z m 3.59823,3.659208 v 0.0016 0.77308 0.0015 2.883028 0.0016 h 3.59823 v 0.774113 0.0016 2.881478 0.0021 h 3.598229 v 0.772562 0.0016 2.883028 0.0016 h 3.597714 v 0.77463 0.0016 2.881478 h 3.59823 l -0.0041,-3.657658 v -0.0016 h -3.59413 l -0.0062,-3.657141 v -0.0021 h -3.591513 l -0.0047,-3.657142 v -0.0016 h -3.593579 l -0.0062,-3.657658 v -0.0016 z M 157.02371,36.93179 v 0.77463 2.884578 h 3.59823 l -0.006,-3.659208 z m 3.59823,3.659208 v 0.775664 2.883544 h 3.59823 l -0.005,-3.659208 z m 3.59823,3.659208 v 0.774113 2.884579 h 3.59823 l -0.006,-3.658692 z m 3.59823,3.658692 v 0.77618 2.883028 h 3.59823 l -0.005,-3.659208 z m 3.59823,3.659208 v 0.0016 0.77308 0.0015 2.883028 0.0016 h 3.59823 v 0.774113 0.0016 2.881478 0.0021 h 3.59823 v 0.772562 0.0016 2.883028 0.0016 h 3.59823 v 0.77463 0.0016 2.881478 h 3.59823 l -0.005,-3.657658 v -0.0016 H 182.212 l -0.006,-3.657141 v -0.0021 h -3.59203 l -0.005,-3.657142 v -0.0016 h -3.59306 l -0.006,-3.657658 v -0.0016 z M 7.3299991,38.482083 h 0.497644 v 0.560173 h -0.497644 z m 7.1964599,0 h 0.497644 v 0.560173 h -0.497644 z m 7.19646,0 h 0.497644 v 0.560173 h -0.497644 z m 7.19646,0 h 0.497127 v 0.560173 h -0.497127 z m 7.19646,0 h 0.497127 v 0.560173 h -0.497127 z m 7.195943,0 h 0.497644 v 0.560173 h -0.497644 z m 7.19646,0 h 0.497644 v 0.560173 h -0.497644 z m 7.19646,0 h 0.497644 v 0.560173 h -0.497644 z m 7.19646,0 h 0.497644 v 0.560173 h -0.497644 z m 7.19646,0 h 0.497127 v 0.560173 h -0.497127 z m 7.195943,0 h 0.497644 v 0.560173 h -0.497644 z m 7.19646,0 h 0.497644 v 0.560173 h -0.497644 z m 7.19646,0 h 0.497644 v 0.560173 h -0.497644 z m 7.196465,0 h 0.49764 v 0.560173 h -0.49764 z m 7.19646,0 h 0.49713 v 0.560173 h -0.49713 z m 7.19646,0 h 0.49713 v 0.560173 h -0.49713 z m 7.19594,0 h 0.49765 v 0.560173 h -0.49765 z m 7.19646,0 h 0.49765 v 0.560173 h -0.49765 z m 7.19646,0 h 0.49765 v 0.560173 h -0.49765 z m 7.19646,0 h 0.49765 v 0.560173 h -0.49765 z m 7.19646,0 h 0.49713 v 0.560173 h -0.49713 z m 7.3148,0 h 0.49764 v 0.560173 h -0.49764 z m 7.19646,0 h 0.49764 v 0.560173 h -0.49764 z m 7.19646,0 h 0.49764 v 0.560173 h -0.49764 z m 7.19646,0 h 0.49764 v 0.560173 h -0.49764 z m 7.19646,0 h 0.49713 v 0.560173 h -0.49713 z m 7.19594,0 h 0.49765 v 0.560173 h -0.49765 z m 7.19646,0 h 0.49765 v 0.560173 h -0.49765 z M 10.928229,42.141291 h 0.497644 v 0.559656 h -0.497644 z m 7.19646,0 h 0.497644 v 0.559656 h -0.497644 z m 7.19646,0 h 0.497644 v 0.559656 h -0.497644 z m 7.19646,0 h 0.497127 v 0.559656 h -0.497127 z m 7.195943,0 h 0.497644 v 0.559656 h -0.497644 z m 7.19646,0 h 0.497644 v 0.559656 h -0.497644 z m 7.19646,0 h 0.497644 v 0.559656 h -0.497644 z m 7.19646,0 h 0.497644 v 0.559656 h -0.497644 z m 7.19646,0 h 0.497127 v 0.559656 h -0.497127 z m 7.19646,0 h 0.497127 v 0.559656 h -0.497127 z m 7.195943,0 h 0.497644 v 0.559656 h -0.497644 z m 7.19646,0 h 0.497644 v 0.559656 h -0.497644 z m 7.19646,0 h 0.497644 v 0.559656 h -0.497644 z m 7.196465,0 h 0.49764 v 0.559656 h -0.49764 z m 7.19646,0 h 0.49713 v 0.559656 h -0.49713 z m 7.19594,0 h 0.49765 v 0.559656 h -0.49765 z m 7.19646,0 h 0.49765 v 0.559656 h -0.49765 z m 7.19646,0 h 0.49765 v 0.559656 h -0.49765 z m 7.19646,0 h 0.49765 v 0.559656 h -0.49765 z m 7.19646,0 h 0.49713 v 0.559656 h -0.49713 z m 7.19646,0 h 0.49713 v 0.559656 h -0.49713 z m 7.3148,0 h 0.49764 v 0.559656 h -0.49764 z m 7.19646,0 h 0.49764 v 0.559656 h -0.49764 z m 7.19646,0 h 0.49764 v 0.559656 h -0.49764 z m 7.19646,0 h 0.49713 v 0.559656 h -0.49713 z m 7.19594,0 h 0.49765 v 0.559656 H 190.956 Z m 7.19646,0 h 0.49765 v 0.559656 h -0.49765 z M 5.7812564,44.250206 v 0.774113 2.884579 h 3.59823 l -0.0062,-3.658692 z m 3.59823,3.658692 v 0.77618 2.883028 h 3.5982306 l -0.0047,-3.659208 z m 3.5982306,3.659208 v 0.0016 0.77308 0.0015 2.883028 0.0016 h 3.59823 v 0.774113 0.0016 2.881478 0.0021 h 3.59823 v 0.772562 0.0016 2.883028 0.0016 h 3.59823 v 0.77463 0.0016 2.881478 h 3.598229 l -0.0047,-3.657658 v -0.0016 h -3.593579 l -0.0062,-3.657141 v -0.0021 h -3.592028 l -0.0047,-3.657142 v -0.0016 H 16.57585 l -0.0062,-3.657658 v -0.0016 z m 144.045993,-7.3179 v 0.774113 2.884579 h 3.59823 l -0.006,-3.658692 z m 3.59823,3.658692 v 0.77618 2.883028 h 3.59823 l -0.005,-3.659208 z m 3.59823,3.659208 v 0.0016 0.77308 0.0015 2.883028 0.0016 h 3.59823 v 0.774113 0.0016 2.881478 0.0021 h 3.59823 v 0.772562 0.0016 2.883028 0.0016 h 3.59823 v 0.77463 0.0016 2.881478 h 3.59874 l -0.005,-3.657658 v -0.0016 h -3.59307 l -0.006,-3.657141 v -0.0021 h -3.59203 l -0.005,-3.657142 v -0.0016 h -3.59306 l -0.006,-3.657658 v -0.0016 z M 7.3299991,45.800499 h 0.497644 v 0.559656 h -0.497644 z m 7.1964599,0 h 0.497644 v 0.559656 h -0.497644 z m 7.19646,0 h 0.497644 v 0.559656 h -0.497644 z m 7.19646,0 h 0.497127 v 0.559656 h -0.497127 z m 7.19646,0 h 0.497127 v 0.559656 h -0.497127 z m 7.195943,0 h 0.497644 v 0.559656 h -0.497644 z m 7.19646,0 h 0.497644 v 0.559656 h -0.497644 z m 7.19646,0 h 0.497644 v 0.559656 h -0.497644 z m 7.19646,0 h 0.497644 v 0.559656 h -0.497644 z m 7.19646,0 h 0.497127 v 0.559656 h -0.497127 z m 7.195943,0 h 0.497644 v 0.559656 h -0.497644 z m 7.19646,0 h 0.497644 v 0.559656 h -0.497644 z m 7.19646,0 h 0.497644 v 0.559656 h -0.497644 z m 7.196465,0 h 0.49764 v 0.559656 h -0.49764 z m 7.19646,0 h 0.49713 v 0.559656 h -0.49713 z m 7.19646,0 h 0.49713 v 0.559656 h -0.49713 z m 7.19594,0 h 0.49765 v 0.559656 h -0.49765 z m 7.19646,0 h 0.49765 v 0.559656 h -0.49765 z m 7.19646,0 h 0.49765 v 0.559656 h -0.49765 z m 7.19646,0 h 0.49765 v 0.559656 h -0.49765 z m 7.19646,0 h 0.49713 v 0.559656 h -0.49713 z m 7.3148,0 h 0.49764 v 0.559656 h -0.49764 z m 7.19646,0 h 0.49764 v 0.559656 h -0.49764 z m 7.19646,0 h 0.49764 v 0.559656 h -0.49764 z m 7.19646,0 h 0.49764 v 0.559656 h -0.49764 z m 7.19646,0 h 0.49713 v 0.559656 h -0.49713 z m 7.19594,0 h 0.49765 v 0.559656 h -0.49765 z m 7.19646,0 h 0.49765 v 0.559656 h -0.49765 z M 10.928229,49.459191 h 0.497644 v 0.560172 h -0.497644 z m 7.19646,0 h 0.497644 v 0.560172 h -0.497644 z m 7.19646,0 h 0.497644 v 0.560172 h -0.497644 z m 7.19646,0 h 0.497127 v 0.560172 h -0.497127 z m 7.195943,0 h 0.497644 v 0.560172 h -0.497644 z m 7.19646,0 h 0.497644 v 0.560172 h -0.497644 z m 7.19646,0 h 0.497644 v 0.560172 h -0.497644 z m 7.19646,0 h 0.497644 v 0.560172 h -0.497644 z m 7.19646,0 h 0.497127 v 0.560172 h -0.497127 z m 7.19646,0 h 0.497127 v 0.560172 h -0.497127 z m 7.195943,0 h 0.497644 v 0.560172 h -0.497644 z m 7.19646,0 h 0.497644 v 0.560172 h -0.497644 z m 7.19646,0 h 0.497644 v 0.560172 h -0.497644 z m 7.196465,0 h 0.49764 v 0.560172 h -0.49764 z m 7.19646,0 h 0.49713 v 0.560172 h -0.49713 z m 7.19594,0 h 0.49765 v 0.560172 h -0.49765 z m 7.19646,0 h 0.49765 v 0.560172 h -0.49765 z m 7.19646,0 h 0.49765 v 0.560172 h -0.49765 z m 7.19646,0 h 0.49765 v 0.560172 h -0.49765 z m 7.19646,0 h 0.49713 v 0.560172 h -0.49713 z m 7.19646,0 h 0.49713 v 0.560172 h -0.49713 z m 7.3148,0 h 0.49764 v 0.560172 h -0.49764 z m 7.19646,0 h 0.49764 v 0.560172 h -0.49764 z m 7.19646,0 h 0.49764 v 0.560172 h -0.49764 z m 7.19646,0 h 0.49713 v 0.560172 h -0.49713 z m 7.19594,0 h 0.49765 v 0.560172 H 190.956 Z m 7.19646,0 h 0.49765 v 0.560172 h -0.49765 z M 5.7812564,51.568106 v 0.0016 0.77308 0.0015 2.883028 0.0016 h 3.59823 v 0.774113 0.0016 2.881478 0.0021 h 3.5982306 v 0.772562 0.0016 2.883028 0.0016 h 3.59823 v 0.77463 0.0016 2.881478 h 3.59823 l -0.0047,-3.657658 v -0.0016 h -3.593579 l -0.0062,-3.657141 v -0.0021 H 12.97767 l -0.0047,-3.657142 v -0.0016 H 9.3794864 l -0.0062,-3.657658 v -0.0016 z m 151.2424536,0 v 0.0016 0.77308 0.0015 2.883028 0.0016 h 3.59823 v 0.774113 0.0016 2.881478 0.0021 h 3.59823 v 0.772562 0.0016 2.883028 0.0016 h 3.59823 v 0.77463 0.0016 2.881478 h 3.59874 l -0.005,-3.657658 v -0.0016 h -3.59307 l -0.006,-3.657141 v -0.0021 h -3.59203 l -0.005,-3.657142 v -0.0016 h -3.59306 l -0.006,-3.657658 v -0.0016 z M 7.3299991,53.119949 h 0.497644 v 0.558106 h -0.497644 z m 7.1964599,0 h 0.497644 v 0.558106 h -0.497644 z m 7.19646,0 h 0.497644 v 0.558106 h -0.497644 z m 7.19646,0 h 0.497127 v 0.558106 h -0.497127 z m 7.19646,0 h 0.497127 v 0.558106 h -0.497127 z m 7.195943,0 h 0.497644 v 0.558106 h -0.497644 z m 7.19646,0 h 0.497644 v 0.558106 h -0.497644 z m 7.19646,0 h 0.497644 v 0.558106 h -0.497644 z m 7.19646,0 h 0.497644 v 0.558106 h -0.497644 z m 7.19646,0 h 0.497127 v 0.558106 h -0.497127 z m 7.195943,0 h 0.497644 v 0.558106 h -0.497644 z m 7.19646,0 h 0.497644 v 0.558106 h -0.497644 z m 7.19646,0 h 0.497644 v 0.558106 h -0.497644 z m 7.196465,0 h 0.49764 v 0.558106 h -0.49764 z m 7.19646,0 h 0.49713 v 0.558106 h -0.49713 z m 7.19646,0 h 0.49713 v 0.558106 h -0.49713 z m 7.19594,0 h 0.49765 v 0.558106 h -0.49765 z m 7.19646,0 h 0.49765 v 0.558106 h -0.49765 z m 7.19646,0 h 0.49765 v 0.558106 h -0.49765 z m 7.19646,0 h 0.49765 v 0.558106 h -0.49765 z m 7.19646,0 h 0.49713 v 0.558106 h -0.49713 z m 7.3148,0 h 0.49764 v 0.558106 h -0.49764 z m 7.19646,0 h 0.49764 v 0.558106 h -0.49764 z m 7.19646,0 h 0.49764 v 0.558106 h -0.49764 z m 7.19646,0 h 0.49764 v 0.558106 h -0.49764 z m 7.19646,0 h 0.49713 v 0.558106 h -0.49713 z m 7.19594,0 h 0.49765 v 0.558106 h -0.49765 z m 7.19646,0 h 0.49765 v 0.558106 h -0.49765 z M 10.928229,56.779157 h 0.497644 v 0.558106 h -0.497644 z m 7.19646,0 h 0.497644 v 0.558106 h -0.497644 z m 7.19646,0 h 0.497644 v 0.558106 h -0.497644 z m 7.19646,0 h 0.497127 v 0.558106 h -0.497127 z m 7.195943,0 h 0.497644 v 0.558106 h -0.497644 z m 7.19646,0 h 0.497644 v 0.558106 h -0.497644 z m 7.19646,0 h 0.497644 v 0.558106 h -0.497644 z m 7.19646,0 h 0.497644 v 0.558106 h -0.497644 z m 7.19646,0 h 0.497127 v 0.558106 h -0.497127 z m 7.19646,0 h 0.497127 v 0.558106 h -0.497127 z m 7.195943,0 h 0.497644 v 0.558106 h -0.497644 z m 7.19646,0 h 0.497644 v 0.558106 h -0.497644 z m 7.19646,0 h 0.497644 v 0.558106 h -0.497644 z m 7.196465,0 h 0.49764 v 0.558106 h -0.49764 z m 7.19646,0 h 0.49713 v 0.558106 h -0.49713 z m 7.19594,0 h 0.49765 v 0.558106 h -0.49765 z m 7.19646,0 h 0.49765 v 0.558106 h -0.49765 z m 7.19646,0 h 0.49765 v 0.558106 h -0.49765 z m 7.19646,0 h 0.49765 v 0.558106 h -0.49765 z m 7.19646,0 h 0.49713 v 0.558106 h -0.49713 z m 7.19646,0 h 0.49713 v 0.558106 h -0.49713 z m 7.3148,0 h 0.49764 v 0.558106 h -0.49764 z m 7.19646,0 h 0.49764 v 0.558106 h -0.49764 z m 7.19646,0 h 0.49764 v 0.558106 h -0.49764 z m 7.19646,0 h 0.49713 v 0.558106 h -0.49713 z m 7.19594,0 h 0.49765 v 0.558106 H 190.956 Z m 7.19646,0 h 0.49765 v 0.558106 h -0.49765 z M 5.7812564,58.886006 v 0.0021 0.772562 0.0016 2.883028 0.0016 h 3.59823 v 0.77463 0.0016 2.881478 h 3.5982306 l -0.0047,-3.657658 v -0.0016 H 9.3794864 l -0.0062,-3.657141 v -0.0021 z m 151.2424536,0 v 0.0021 0.772562 0.0016 2.883028 0.0016 h 3.59823 v 0.77463 0.0016 2.881478 h 3.59874 l -0.005,-3.657658 v -0.0016 h -3.59307 l -0.006,-3.657141 v -0.0021 z M 7.3299991,60.438366 h 0.497644 v 0.558105 h -0.497644 z m 7.1964599,0 h 0.497644 v 0.558105 h -0.497644 z m 7.19646,0 h 0.497644 v 0.558105 h -0.497644 z m 7.19646,0 h 0.497127 v 0.558105 h -0.497127 z m 7.19646,0 h 0.497127 v 0.558105 h -0.497127 z m 7.195943,0 h 0.497644 v 0.558105 h -0.497644 z m 7.19646,0 h 0.497644 v 0.558105 h -0.497644 z m 7.19646,0 h 0.497644 v 0.558105 h -0.497644 z m 7.19646,0 h 0.497644 v 0.558105 h -0.497644 z m 7.19646,0 h 0.497127 v 0.558105 h -0.497127 z m 7.195943,0 h 0.497644 v 0.558105 h -0.497644 z m 7.19646,0 h 0.497644 v 0.558105 h -0.497644 z m 7.19646,0 h 0.497644 v 0.558105 h -0.497644 z m 7.196465,0 h 0.49764 v 0.558105 h -0.49764 z m 7.19646,0 h 0.49713 v 0.558105 h -0.49713 z m 7.19646,0 h 0.49713 v 0.558105 h -0.49713 z m 7.19594,0 h 0.49765 v 0.558105 h -0.49765 z m 7.19646,0 h 0.49765 v 0.558105 h -0.49765 z m 7.19646,0 h 0.49765 v 0.558105 h -0.49765 z m 7.19646,0 h 0.49765 v 0.558105 h -0.49765 z m 7.19646,0 h 0.49713 v 0.558105 h -0.49713 z m 7.3148,0 h 0.49764 v 0.558105 h -0.49764 z m 7.19646,0 h 0.49764 v 0.558105 h -0.49764 z m 7.19646,0 h 0.49764 v 0.558105 h -0.49764 z m 7.19646,0 h 0.49764 v 0.558105 h -0.49764 z m 7.19646,0 h 0.49713 v 0.558105 h -0.49713 z m 7.19594,0 h 0.49765 v 0.558105 h -0.49765 z m 7.19646,0 h 0.49765 v 0.558105 h -0.49765 z M 10.928229,64.097057 h 0.497644 v 0.558622 h -0.497644 z m 7.19646,0 h 0.497644 v 0.558622 h -0.497644 z m 7.19646,0 h 0.497644 v 0.558622 h -0.497644 z m 7.19646,0 h 0.497127 v 0.558622 h -0.497127 z m 7.195943,0 h 0.497644 v 0.558622 h -0.497644 z m 7.19646,0 h 0.497644 v 0.558622 h -0.497644 z m 7.19646,0 h 0.497644 v 0.558622 h -0.497644 z m 7.19646,0 h 0.497644 v 0.558622 h -0.497644 z m 7.19646,0 h 0.497127 v 0.558622 h -0.497127 z m 7.19646,0 h 0.497127 v 0.558622 h -0.497127 z m 7.195943,0 h 0.497644 v 0.558622 h -0.497644 z m 7.19646,0 h 0.497644 v 0.558622 h -0.497644 z m 7.19646,0 h 0.497644 v 0.558622 h -0.497644 z m 7.196465,0 h 0.49764 v 0.558622 h -0.49764 z m 7.19646,0 h 0.49713 v 0.558622 h -0.49713 z m 7.19594,0 h 0.49765 v 0.558622 h -0.49765 z m 7.19646,0 h 0.49765 v 0.558622 h -0.49765 z m 7.19646,0 h 0.49765 v 0.558622 h -0.49765 z m 7.19646,0 h 0.49765 v 0.558622 h -0.49765 z m 7.19646,0 h 0.49713 v 0.558622 h -0.49713 z m 7.19646,0 h 0.49713 v 0.558622 h -0.49713 z m 7.3148,0 h 0.49764 v 0.558622 h -0.49764 z m 7.19646,0 h 0.49764 v 0.558622 h -0.49764 z m 7.19646,0 h 0.49764 v 0.558622 h -0.49764 z m 7.19646,0 h 0.49713 v 0.558622 h -0.49713 z m 7.19594,0 h 0.49765 v 0.558622 H 190.956 Z m 7.19646,0 h 0.49765 v 0.558622 h -0.49765 z">
            <animate attributeName="fill" values="
               #ca3214;
               #cd2b31;
               #d31e66;
               #cd1d8d;
               #9c2bad;
               #5746af;
               #3451b2;
               #006adc;
               #0c7792;
               #067a6f;
               #18794e;
               #147d6f;
               #5d770d;
               #946800;
               #ad5700;
               #bd4b00;
               #ca3214;
            " dur="15s" repeatCount="indefinite">
            </animate>
         </path>
         <g id="g52858" transform="translate(-0.30209318,-25.561553)">
            <rect
               style="fill:#171717;fill-opacity:1;stroke:none;stroke-width:0.1;stroke-dasharray:none;stroke-opacity:1"
               id="rect51088" width="53.972931" height="7.3178988" x="78.046913" y="69.81176" />
            <text xml:space="preserve"
               style="font-weight:600;font-size:3.54926px;font-family:'Cal Sans';-inkscape-font-specification:'Cal Sans, Semi-Bold';fill:#fcfcfc;fill-opacity:1;stroke:none;stroke-width:0.0555848;stroke-dasharray:none;stroke-opacity:1"
               x="81.885117" y="74.395294" id="text51420">
               <tspan id="tspan51418" style="fill:#fcfcfc;fill-opacity:1;stroke-width:0.0555848" x="81.885117"
                  y="74.395294">By developers, for developers</tspan>
            </text>
         </g>
         <g id="g8172" transform="translate(74.349569,-68.511447)">
            <path id="rect8835" style="fill:#171717;stroke-width:0"
               d="M 3.3908575,94.481644 H 57.486938 V 109.11781 H 3.3908575 Z" />
            <g id="path8744" transform="translate(-92.146297,93.62268)">
               <path
                  style="color:#000000;-inkscape-font-specification:'Cal Sans, Normal';fill:#fcfcfc;stroke-width:0.2;-inkscape-stroke:none"
                  d="m 98.732436,4.1103726 v 0.68833 l 5.17e-4,2.5631511 h 3.195157 l -0.004,-3.2514811 z m 19.299594,0.048576 -1.37666,0.00155 0.0108,4.6979045 h -1.4304 l -0.0362,-2.5657349 0.86248,-1.0226766 -1.05213,-0.8872843 -1.55392,1.8422648 0.0341,-2.0644735 -5.3051,0.036174 V 8.956072 l -0.59686,0.0031 V 4.2266445 l -6.16345,3.5884115 v 3.041675 l -2.695962,0.01033 0.0057,1.37666 4.066422,-0.01602 V 8.6072557 l 3.41116,-1.9859253 v 2.344043 l -2.75125,0.012919 v 3.2473466 h 3.96617 v -1.376143 h -2.59003 v -0.500228 l 3.34812,-0.01602 v 1.842264 h 9.86141 V 10.79937 h -6.64921 l 2.44843,-2.9021485 0.0336,2.3373255 h 4.16719 z M 100.1091,5.4870327 h 0.4408 v 0.4981608 h -0.4408 z m 11.98118,0.058911 -0.0393,2.3435262 -0.44958,0.5333007 -0.009,-2.210201 -1.37615,0.00568 0.0181,4.5811154 h -0.67231 V 5.5640306 Z"
                  id="path41520" />
               <path
                  style="color:#000000;-inkscape-font-specification:'Cal Sans, Normal';fill:#171717;-inkscape-stroke:none"
                  d="m 98.632812,4.0097656 v 0.1015625 0.6875 2.6621094 h 3.201168 l -0.50976,0.296875 v 3.0000005 l -2.695314,0.0098 0.0059,1.576172 4.265624,-0.01563 V 8.6640625 l 3.21094,-1.8691406 v 2.0703125 l -2.75,0.013672 v 3.4472656 h 4.16601 V 10.75 h -2.58984 v -0.300781 l 3.14844,-0.01563 v 1.841797 h 10.06054 v -1.576172 h -6.5332 l 2.13672,-2.5351565 0.0312,2.1699215 h 4.36523 l -0.0156,-6.2753903 h -0.0996 l -1.47656,0.00195 0.0117,4.6972656 h -1.23243 l -0.0332,-2.4296875 0.90235,-1.0703125 -1.20508,-1.015625 -1.4375,1.7011719 0.0312,-1.8828125 -5.50586,0.037109 v 4.7597657 l -0.39844,0.00195 v -4.806629 l -5.66016,3.2949218 -0.004,-3.3378906 z m 0.199219,0.2011719 h 2.992189 l 0.004,3.0507812 H 98.832031 V 4.7988281 Z m 14.556639,0.048828 -0.0371,2.2441406 1.66992,-1.9804687 0.9004,0.7578125 -0.82227,0.9746094 0.0371,2.703125 h 1.62891 l -0.01,-4.6992188 h 1.17578 l 0.0156,5.8750005 h -3.96875 l -0.0371,-2.5058599 -2.75977,3.2695319 h 6.76563 v 1.177734 h -9.66211 v -1.84375 L 104.73633,10.25 v 0.699219 h 2.58984 V 12.125 h -3.76562 V 9.078125 L 106.3125,9.064453 V 6.4472656 l -3.61133,2.1015625 v 3.5800779 l -3.867186,0.01367 -0.0059,-1.175781 2.697266,-0.0098 V 7.8730469 l 5.96289,-3.4726563 v 4.6601563 l 0.79688,-0.00586 V 4.296875 Z m -13.3789,1.1269531 v 0.099609 0.5996094 h 0.64062 V 5.3867187 Z m 12.08007,0.058594 -2.62695,0.019531 v 5.4335944 h 0.87109 l -0.0176,-4.5800787 1.17578,-0.00586 0.01,2.3828125 0.64844,-0.7695313 0.041,-2.4804687 z m -11.88086,0.1425781 h 0.24024 v 0.296875 h -0.24024 z m 11.7793,0.058594 -0.0371,2.2050781 -0.25195,0.2988281 -0.008,-2.0390625 -1.57618,0.00781 0.0195,4.5800786 h -0.47266 V 5.6640625 Z"
                  id="path41522" />
            </g>
            <g id="path8728" transform="translate(-92.146297,93.62268)">
               <path
                  style="color:#000000;-inkscape-font-specification:'Cal Sans, Normal';fill:#fcfcfc;stroke-width:0.1;-inkscape-stroke:none"
                  d="m 144.96269,4.0586961 v 3.1677653 c -0.3059,-0.6008721 -0.8193,-0.9937378 -1.79162,-0.9937378 -1.56227,0 -2.80758,1.3435047 -2.80758,2.982247 0,1.6387424 1.24531,2.9605424 2.80758,2.9605424 1.01602,0 1.52964,-0.425647 1.83554,-1.070219 v 0.928626 h 1.43092 V 4.0586961 Z m -1.55133,3.5067627 c 0.97232,0 1.59525,0.7645908 1.59525,1.6495118 0,0.8849214 -0.62293,1.6278074 -1.59525,1.6278074 -0.93954,0 -1.57303,-0.775588 -1.57303,-1.6386595 0,-0.8849207 0.63349,-1.6386597 1.57303,-1.6386597 z m -6.28178,-1.354956 c -1.70429,0 -2.93884,1.3548736 -2.93884,2.9936157 0,1.6387425 1.17993,2.9713945 2.93884,2.9713945 1.12527,0 2.07588,-0.502206 2.53472,-1.212329 l -1.14721,-0.862996 c -0.26219,0.436997 -0.75387,0.764294 -1.38751,0.764294 -0.74289,0 -1.24535,-0.469425 -1.40922,-1.1358477 h 4.24987 c 0.0328,-0.1857241 0.0434,-0.3606414 0.0434,-0.5245158 0,-1.6387421 -1.17977,-2.9936157 -2.88406,-2.9936157 z m -0.0543,1.2676229 c 0.0108,-2.284e-4 0.0216,0 0.0325,0 0.72105,0 1.25619,0.5135699 1.42007,1.1472168 h -2.80758 c 0.16131,-0.6667631 0.67211,-1.1328288 1.35496,-1.1472168 z m -6.07465,4.5555553 h 1.47487 V 9.1276422 c 0,-0.9504713 0.6555,-1.5185691 1.50764,-1.5185691 h 0.20758 V 6.2216035 c -0.98325,-0.054625 -1.56227,0.3932984 -1.75892,1.2126702 V 6.3527029 h -1.43117 z M 127.3188,6.2213548 c -1.75891,0 -3.02617,1.3440216 -3.02617,2.9827637 0,1.6387425 1.26726,2.9713945 3.02617,2.9713945 1.75892,0 3.02618,-1.332652 3.02618,-2.9713945 0,-1.6387421 -1.26726,-2.9827637 -3.02618,-2.9827637 z m 0,1.344104 c 0.93955,0 1.55133,0.753739 1.55133,1.6386597 0,0.8849215 -0.61178,1.6278075 -1.55133,1.6278075 -0.93954,0 -1.55132,-0.742886 -1.55132,-1.6278075 0,-0.8849207 0.61178,-1.6386597 1.55132,-1.6386597 z m -7.57083,4.4682222 h 4.38091 v -1.376544 h -2.85141 V 4.3862106 h -1.5295 z"
                  id="path41526" />
               <path
                  style="color:#000000;-inkscape-font-specification:'Cal Sans, Normal';fill:#171717;-inkscape-stroke:none"
                  d="m 144.91211,4.0078125 v 0.050781 3.0390625 c -0.32091,-0.5411017 -0.82494,-0.9140624 -1.74024,-0.9140625 -1.59093,0 -2.85742,1.3671788 -2.85742,3.0312501 0,1.6640714 1.26695,3.0097654 2.85742,3.0097654 0.95661,0 1.46445,-0.404097 1.78516,-0.984375 v 0.84375 h 1.53125 V 4.0078125 Z m 0.0996,0.1015625 h 1.375 v 7.875 h -1.33008 v -0.878906 l -0.0957,-0.02149 c -0.30026,0.632689 -0.78701,1.041016 -1.78907,1.041016 -1.53406,0 -2.75781,-1.296746 -2.75781,-2.9101562 0,-1.6134101 1.22421,-2.9316407 2.75781,-2.9316407 0.95886,0 1.44646,0.3782297 1.7461,0.9667969 l 0.0937,-0.023437 z m -25.31445,0.2265625 v 7.7480465 h 0.0508 4.43164 v -1.476562 h -2.85156 V 4.3359375 Z m 0.10156,0.099609 h 1.42773 v 6.2714845 h 2.85157 v 1.277344 h -4.2793 z m 17.33008,1.7246093 c -1.73079,0 -2.98829,1.3810697 -2.98829,3.0449219 0,1.6627423 1.20412,3.0195313 2.98829,3.0195313 1.14014,0 2.10803,-0.506838 2.57812,-1.234375 l 0.0254,-0.03906 -1.23047,-0.923828 -0.0273,0.04687 c -0.25367,0.422793 -0.72928,0.740234 -1.3457,0.740234 -0.69335,0 -1.14493,-0.427557 -1.32227,-1.0351565 h 4.20508 l 0.008,-0.041016 c 0.0334,-0.1892019 0.0449,-0.3671728 0.0449,-0.5332032 0,-1.6627379 -1.20476,-3.0449219 -2.93554,-3.0449219 z m -9.81055,0.011719 c -1.78438,0 -3.07617,1.3686856 -3.07617,3.0332031 0,1.6645181 1.29201,3.0195311 3.07617,3.0195311 1.78417,0 3.07617,-1.355013 3.07617,-3.0195311 0,-1.6645175 -1.29178,-3.0332031 -3.07617,-3.0332031 z m 6.875,0 c -0.49973,-0.027762 -0.90177,0.071673 -1.20508,0.2871094 -0.25346,0.1800268 -0.3944,0.4800442 -0.50586,0.8046875 V 6.3027344 h -1.53125 V 12.083984 H 131 132.52539 V 9.1269531 c 0,-0.4637409 0.15971,-0.8271144 0.41992,-1.078125 0.26021,-0.2510105 0.62215,-0.390625 1.03711,-0.390625 h 0.25781 v -1.484375 z m 2.93555,0.087891 c 1.67779,0 2.83398,1.3305695 2.83398,2.9453125 0,0.1482295 -0.0109,0.3071982 -0.0371,0.4726563 h -4.26953 l 0.0156,0.0625 c 0.16823,0.6841484 0.69308,1.1738274 1.45704,1.1738284 0.62615,-1e-6 1.09926,-0.334311 1.37695,-0.759766 l 1.08008,0.8125 c -0.45687,0.672726 -1.36713,1.158203 -2.45703,1.158203 -1.73366,0 -2.88868,-1.305182 -2.88868,-2.9199217 0,-1.6136287 1.21089,-2.9453125 2.88868,-2.9453125 z m -9.81055,0.011719 c 1.73345,0 2.97656,1.3206303 2.97656,2.9335937 0,1.6129635 -1.2429,2.9199215 -2.97656,2.9199215 -1.73365,0 -2.97656,-1.306958 -2.97656,-2.9199215 0,-1.6129634 1.24312,-2.9335937 2.97656,-2.9335937 z m 6.82226,0.011719 v 1.2753906 h -0.1582 c -0.43718,0 -0.82685,0.1473131 -1.10742,0.4179688 -0.28057,0.2706557 -0.44922,0.6636612 -0.44922,1.1503906 v 2.8574222 h -1.375 V 6.4023437 h 1.33008 v 1.03125 l 0.0996,0.011719 c 0.0962,-0.4008672 0.28328,-0.7045851 0.56445,-0.9042969 0.2696,-0.1914927 0.64039,-0.2738602 1.0957,-0.2578125 z m 2.9336,1.1445313 c -0.70506,0.014856 -1.23661,0.5005125 -1.40235,1.1855469 l -0.0156,0.0625 h 2.93555 l -0.0156,-0.0625 c -0.16884,-0.6528515 -0.72396,-1.1855469 -1.46875,-1.1855469 -0.01,0 -0.0199,-1.895e-4 -0.0312,0 z m -9.75586,0.087891 c -0.96628,0 -1.60156,0.7814887 -1.60156,1.6894531 0,0.9079648 0.63566,1.6777338 1.60156,1.6777348 0.9659,0 1.60156,-0.76977 1.60156,-1.6777348 0,-0.9079644 -0.63527,-1.6894531 -1.60156,-1.6894531 z m 16.09375,0 c -0.96628,0 -1.62305,0.7806709 -1.62305,1.6894531 0,0.8875368 0.65599,1.6874998 1.62305,1.6874998 0.99779,0 1.64453,-0.769349 1.64453,-1.6777341 0,-0.9083848 -0.646,-1.6992188 -1.64453,-1.6992188 z m -6.33594,0.011719 c 0.009,-1.986e-4 0.0197,0 0.0312,0 0.66943,0 1.15237,0.4686832 1.33203,1.0488282 h -2.63476 c 0.17508,-0.6086769 0.636,-1.0354383 1.27148,-1.0488282 z m -9.75781,0.087891 c 0.91281,0 1.50195,0.7279685 1.50195,1.5898437 0,0.8618762 -0.58876,1.5761722 -1.50195,1.5761722 -0.91318,0 -1.5,-0.714296 -1.5,-1.5761722 0,-0.8618752 0.5872,-1.5898437 1.5,-1.5898437 z m 16.09375,0 c 0.94611,0 1.54492,0.7381538 1.54492,1.5996094 0,0.8614565 -0.59807,1.5781255 -1.54492,1.5781255 -0.91202,0 -1.52344,-0.749287 -1.52344,-1.5878912 0,-0.8610574 0.61064,-1.5898437 1.52344,-1.5898437 z"
                  id="path41528" />
            </g>
         </g>
      </g>
   </g>
</svg>